<svg xmlns="http://www.w3.org/2000/svg" xmlns:xlink="http://www.w3.org/1999/xlink" width="163" zoomAndPan="magnify" viewBox="0 0 122.25 116.249996" height="155" preserveAspectRatio="xMidYMid meet" version="1.0"><defs><clipPath id="ed12ea9da9"><path d="M 0.0195312 29 L 107 29 L 107 103 L 0.0195312 103 Z M 0.0195312 29 " clip-rule="nonzero"/></clipPath><clipPath id="07d4140c2f"><path d="M 0.0195312 8 L 107 8 L 107 33 L 0.0195312 33 Z M 0.0195312 8 " clip-rule="nonzero"/></clipPath><clipPath id="4b1305f8b7"><path d="M 73 66 L 121.484375 66 L 121.484375 114.757812 L 73 114.757812 Z M 73 66 " clip-rule="nonzero"/></clipPath></defs><path fill="#f4f6f8" d="M 105.371094 30.953125 L 105.371094 68.773438 C 102.816406 67.816406 100.171875 67.339844 97.441406 67.339844 C 95.421875 67.339844 93.441406 67.601562 91.492188 68.117188 C 90.6875 68.335938 89.898438 68.59375 89.125 68.894531 C 87.503906 69.527344 85.976562 70.328125 84.539062 71.300781 C 81.9375 73.066406 79.792969 75.273438 78.105469 77.917969 C 76.933594 79.738281 76.042969 81.683594 75.4375 83.757812 C 74.828125 85.832031 74.527344 87.953125 74.535156 90.113281 C 74.535156 91.097656 74.605469 92.074219 74.746094 93.050781 C 74.746094 93.210938 74.746094 93.382812 74.820312 93.53125 C 75.203125 96.148438 76.03125 98.613281 77.300781 100.9375 L 1.257812 100.9375 L 1.257812 30.953125 Z M 105.371094 30.953125 " fill-opacity="1" fill-rule="nonzero"/><path fill="#fbd277" d="M 15.6875 81.523438 L 27.101562 81.523438 L 27.101562 92.890625 L 15.6875 92.890625 Z M 15.6875 81.523438 " fill-opacity="1" fill-rule="nonzero"/><path fill="#fbd277" d="M 36.96875 81.523438 L 48.382812 81.523438 L 48.382812 92.890625 L 36.96875 92.890625 Z M 36.96875 81.523438 " fill-opacity="1" fill-rule="nonzero"/><path fill="#fbd277" d="M 58.25 39.015625 L 69.664062 39.015625 L 69.664062 50.382812 L 58.25 50.382812 Z M 58.25 39.015625 " fill-opacity="1" fill-rule="nonzero"/><path fill="#fbd277" d="M 58.25 81.523438 L 69.664062 81.523438 L 69.664062 92.890625 L 58.25 92.890625 Z M 58.25 81.523438 " fill-opacity="1" fill-rule="nonzero"/><path fill="#fbd277" d="M 15.6875 39.015625 L 27.101562 39.015625 L 27.101562 50.382812 L 15.6875 50.382812 Z M 15.6875 39.015625 " fill-opacity="1" fill-rule="nonzero"/><path fill="#fbd277" d="M 36.96875 39.015625 L 48.382812 39.015625 L 48.382812 50.382812 L 36.96875 50.382812 Z M 36.96875 39.015625 " fill-opacity="1" fill-rule="nonzero"/><path fill="#fbd277" d="M 58.25 60.269531 L 69.664062 60.269531 L 69.664062 71.636719 L 58.25 71.636719 Z M 58.25 60.269531 " fill-opacity="1" fill-rule="nonzero"/><path fill="#fbd277" d="M 15.6875 60.269531 L 27.101562 60.269531 L 27.101562 71.636719 L 15.6875 71.636719 Z M 15.6875 60.269531 " fill-opacity="1" fill-rule="nonzero"/><path fill="#fbd277" d="M 79.53125 39.015625 L 90.945312 39.015625 L 90.945312 50.382812 L 79.53125 50.382812 Z M 79.53125 39.015625 " fill-opacity="1" fill-rule="nonzero"/><path fill="#fbd277" d="M 79.53125 60.269531 L 90.945312 60.269531 L 90.945312 68.265625 C 90.3125 68.449219 89.707031 68.648438 89.125 68.882812 C 87.503906 69.515625 85.976562 70.316406 84.539062 71.289062 L 84.054688 71.636719 L 79.53125 71.636719 Z M 79.53125 60.269531 " fill-opacity="1" fill-rule="nonzero"/><path fill="#e4e8eb" d="M 105.371094 30.953125 L 105.371094 68.773438 C 103.308594 67.996094 101.175781 67.539062 98.976562 67.402344 L 98.976562 30.953125 Z M 105.371094 30.953125 " fill-opacity="1" fill-rule="nonzero"/><path fill="#656d78" d="M 21.660156 4.761719 L 21.660156 17.203125 C 21.675781 17.449219 21.664062 17.695312 21.628906 17.9375 C 21.59375 18.179688 21.53125 18.417969 21.449219 18.648438 C 21.363281 18.878906 21.257812 19.097656 21.128906 19.308594 C 21 19.515625 20.847656 19.710938 20.679688 19.886719 C 20.511719 20.066406 20.324219 20.226562 20.125 20.367188 C 19.921875 20.507812 19.707031 20.628906 19.480469 20.726562 C 19.253906 20.820312 19.019531 20.894531 18.777344 20.945312 C 18.539062 20.996094 18.292969 21.019531 18.046875 21.019531 C 17.800781 21.019531 17.554688 20.996094 17.316406 20.945312 C 17.074219 20.894531 16.839844 20.820312 16.613281 20.726562 C 16.386719 20.628906 16.171875 20.507812 15.972656 20.367188 C 15.769531 20.226562 15.582031 20.066406 15.414062 19.886719 C 15.246094 19.710938 15.09375 19.515625 14.964844 19.308594 C 14.835938 19.097656 14.730469 18.878906 14.644531 18.648438 C 14.5625 18.417969 14.5 18.179688 14.464844 17.9375 C 14.429688 17.695312 14.417969 17.449219 14.433594 17.203125 L 14.433594 4.761719 C 14.460938 4.304688 14.570312 3.867188 14.765625 3.449219 C 14.960938 3.035156 15.226562 2.667969 15.5625 2.351562 C 15.898438 2.035156 16.28125 1.792969 16.710938 1.625 C 17.140625 1.453125 17.585938 1.371094 18.046875 1.371094 C 18.507812 1.371094 18.953125 1.453125 19.382812 1.625 C 19.8125 1.792969 20.195312 2.035156 20.53125 2.351562 C 20.867188 2.667969 21.132812 3.035156 21.328125 3.449219 C 21.523438 3.867188 21.632812 4.304688 21.660156 4.761719 Z M 21.660156 4.761719 " fill-opacity="1" fill-rule="nonzero"/><path fill="#656d78" d="M 45.171875 4.761719 L 45.171875 17.203125 C 45.1875 17.449219 45.175781 17.695312 45.140625 17.9375 C 45.105469 18.179688 45.046875 18.417969 44.960938 18.648438 C 44.875 18.878906 44.769531 19.097656 44.640625 19.308594 C 44.511719 19.515625 44.363281 19.710938 44.191406 19.886719 C 44.023438 20.066406 43.835938 20.226562 43.636719 20.367188 C 43.433594 20.507812 43.21875 20.628906 42.992188 20.726562 C 42.765625 20.820312 42.53125 20.894531 42.292969 20.945312 C 42.050781 20.996094 41.804688 21.019531 41.558594 21.019531 C 41.3125 21.019531 41.070312 20.996094 40.828125 20.945312 C 40.585938 20.894531 40.351562 20.820312 40.125 20.726562 C 39.898438 20.628906 39.683594 20.507812 39.484375 20.367188 C 39.28125 20.226562 39.09375 20.066406 38.925781 19.886719 C 38.757812 19.710938 38.609375 19.515625 38.480469 19.308594 C 38.347656 19.097656 38.242188 18.878906 38.160156 18.648438 C 38.074219 18.417969 38.015625 18.179688 37.976562 17.9375 C 37.941406 17.695312 37.933594 17.449219 37.945312 17.203125 L 37.945312 4.761719 C 37.972656 4.304688 38.085938 3.867188 38.28125 3.449219 C 38.476562 3.035156 38.742188 2.667969 39.078125 2.351562 C 39.414062 2.035156 39.792969 1.792969 40.222656 1.625 C 40.652344 1.453125 41.097656 1.371094 41.558594 1.371094 C 42.019531 1.371094 42.464844 1.453125 42.894531 1.625 C 43.324219 1.792969 43.707031 2.035156 44.042969 2.351562 C 44.378906 2.667969 44.644531 3.035156 44.839844 3.449219 C 45.035156 3.867188 45.144531 4.304688 45.171875 4.761719 Z M 45.171875 4.761719 " fill-opacity="1" fill-rule="nonzero"/><path fill="#656d78" d="M 68.683594 4.761719 L 68.683594 17.203125 C 68.699219 17.449219 68.6875 17.695312 68.652344 17.9375 C 68.617188 18.179688 68.558594 18.417969 68.472656 18.648438 C 68.390625 18.878906 68.28125 19.097656 68.152344 19.308594 C 68.023438 19.515625 67.875 19.710938 67.703125 19.886719 C 67.535156 20.066406 67.351562 20.226562 67.148438 20.367188 C 66.945312 20.507812 66.730469 20.628906 66.503906 20.726562 C 66.28125 20.820312 66.046875 20.894531 65.804688 20.945312 C 65.5625 20.996094 65.320312 21.019531 65.070312 21.019531 C 64.824219 21.019531 64.582031 20.996094 64.339844 20.945312 C 64.097656 20.894531 63.863281 20.820312 63.636719 20.726562 C 63.410156 20.628906 63.199219 20.507812 62.996094 20.367188 C 62.792969 20.226562 62.609375 20.066406 62.4375 19.886719 C 62.269531 19.710938 62.121094 19.515625 61.992188 19.308594 C 61.863281 19.097656 61.753906 18.878906 61.671875 18.648438 C 61.585938 18.417969 61.527344 18.179688 61.492188 17.9375 C 61.457031 17.695312 61.445312 17.449219 61.457031 17.203125 L 61.457031 4.761719 C 61.484375 4.304688 61.597656 3.867188 61.792969 3.449219 C 61.988281 3.035156 62.253906 2.667969 62.589844 2.351562 C 62.925781 2.035156 63.308594 1.792969 63.734375 1.625 C 64.164062 1.453125 64.609375 1.371094 65.070312 1.371094 C 65.535156 1.371094 65.980469 1.453125 66.40625 1.625 C 66.835938 1.792969 67.21875 2.035156 67.554688 2.351562 C 67.890625 2.667969 68.15625 3.035156 68.351562 3.449219 C 68.546875 3.867188 68.65625 4.304688 68.683594 4.761719 Z M 68.683594 4.761719 " fill-opacity="1" fill-rule="nonzero"/><path fill="#656d78" d="M 92.199219 4.761719 L 92.199219 17.203125 C 92.210938 17.449219 92.199219 17.695312 92.164062 17.9375 C 92.128906 18.179688 92.070312 18.417969 91.984375 18.648438 C 91.902344 18.878906 91.792969 19.097656 91.664062 19.308594 C 91.535156 19.515625 91.386719 19.710938 91.21875 19.886719 C 91.046875 20.066406 90.863281 20.226562 90.660156 20.367188 C 90.457031 20.507812 90.246094 20.628906 90.019531 20.722656 C 89.792969 20.820312 89.558594 20.894531 89.316406 20.945312 C 89.074219 20.996094 88.832031 21.019531 88.585938 21.019531 C 88.335938 21.019531 88.09375 20.996094 87.851562 20.945312 C 87.609375 20.894531 87.375 20.820312 87.152344 20.722656 C 86.925781 20.628906 86.710938 20.507812 86.507812 20.367188 C 86.304688 20.226562 86.121094 20.066406 85.953125 19.886719 C 85.78125 19.710938 85.632812 19.515625 85.503906 19.308594 C 85.375 19.097656 85.265625 18.878906 85.183594 18.648438 C 85.097656 18.417969 85.039062 18.179688 85.003906 17.9375 C 84.96875 17.695312 84.957031 17.449219 84.972656 17.203125 L 84.972656 4.761719 C 85 4.304688 85.109375 3.867188 85.304688 3.449219 C 85.5 3.035156 85.765625 2.667969 86.101562 2.351562 C 86.4375 2.035156 86.820312 1.792969 87.25 1.625 C 87.675781 1.453125 88.121094 1.371094 88.585938 1.371094 C 89.046875 1.371094 89.492188 1.453125 89.921875 1.625 C 90.347656 1.792969 90.730469 2.035156 91.066406 2.351562 C 91.402344 2.667969 91.667969 3.035156 91.863281 3.449219 C 92.058594 3.867188 92.171875 4.304688 92.199219 4.761719 Z M 92.199219 4.761719 " fill-opacity="1" fill-rule="nonzero"/><path fill="#b4df80" d="M 120.246094 90.113281 C 120.246094 91.265625 120.15625 92.414062 119.980469 93.554688 C 119.804688 94.695312 119.542969 95.816406 119.195312 96.917969 C 118.847656 98.019531 118.417969 99.089844 117.90625 100.125 C 117.398438 101.164062 116.808594 102.152344 116.148438 103.101562 C 115.484375 104.046875 114.753906 104.941406 113.957031 105.777344 C 113.15625 106.613281 112.296875 107.386719 111.382812 108.089844 C 110.464844 108.796875 109.5 109.429688 108.484375 109.992188 C 107.472656 110.550781 106.421875 111.03125 105.335938 111.433594 C 104.246094 111.832031 103.136719 112.152344 102 112.382812 C 100.863281 112.613281 99.71875 112.761719 98.558594 112.820312 C 97.402344 112.878906 96.246094 112.847656 95.09375 112.730469 C 93.941406 112.613281 92.800781 112.410156 91.679688 112.121094 C 90.558594 111.832031 89.464844 111.460938 88.398438 111.007812 C 87.332031 110.550781 86.308594 110.019531 85.324219 109.40625 C 84.339844 108.796875 83.410156 108.117188 82.527344 107.363281 C 81.648438 106.613281 80.832031 105.800781 80.074219 104.921875 C 78.679688 103.304688 77.535156 101.527344 76.640625 99.589844 C 75.75 97.652344 75.140625 95.628906 74.820312 93.519531 C 74.820312 93.371094 74.820312 93.199219 74.746094 93.039062 C 74.605469 92.0625 74.535156 91.085938 74.535156 90.101562 C 74.535156 88.292969 74.75 86.507812 75.171875 84.75 C 75.597656 82.992188 76.226562 81.308594 77.054688 79.699219 C 77.882812 78.089844 78.886719 76.601562 80.070312 75.230469 C 81.253906 73.859375 82.582031 72.644531 84.054688 71.585938 L 84.539062 71.242188 C 85.976562 70.265625 87.503906 69.464844 89.125 68.832031 C 89.71875 68.597656 90.363281 68.402344 90.945312 68.214844 L 91.492188 68.117188 C 93.429688 67.609375 95.398438 67.351562 97.402344 67.351562 C 100.144531 67.34375 102.804688 67.816406 105.371094 68.773438 C 106.457031 69.175781 107.507812 69.65625 108.519531 70.21875 C 109.53125 70.78125 110.496094 71.417969 111.410156 72.125 C 112.328125 72.832031 113.183594 73.605469 113.980469 74.441406 C 114.777344 75.28125 115.507812 76.171875 116.167969 77.121094 C 116.828125 78.070312 117.414062 79.0625 117.921875 80.097656 C 118.429688 81.136719 118.859375 82.203125 119.203125 83.304688 C 119.550781 84.40625 119.8125 85.527344 119.984375 86.667969 C 120.160156 87.8125 120.246094 88.957031 120.246094 90.113281 Z M 120.246094 90.113281 " fill-opacity="1" fill-rule="nonzero"/><path fill="#9ed26a" d="M 120.246094 90.113281 C 120.246094 91.265625 120.15625 92.414062 119.980469 93.554688 C 119.804688 94.695312 119.542969 95.816406 119.195312 96.917969 C 118.847656 98.019531 118.417969 99.089844 117.90625 100.125 C 117.398438 101.164062 116.808594 102.152344 116.148438 103.101562 C 115.484375 104.046875 114.753906 104.941406 113.957031 105.777344 C 113.15625 106.613281 112.296875 107.386719 111.382812 108.089844 C 110.464844 108.796875 109.5 109.429688 108.484375 109.992188 C 107.472656 110.550781 106.421875 111.03125 105.335938 111.433594 C 104.246094 111.832031 103.136719 112.152344 102 112.382812 C 100.863281 112.613281 99.71875 112.761719 98.558594 112.820312 C 97.402344 112.878906 96.246094 112.847656 95.09375 112.730469 C 93.941406 112.613281 92.800781 112.410156 91.679688 112.121094 C 90.558594 111.832031 89.464844 111.460938 88.398438 111.007812 C 87.332031 110.550781 86.308594 110.019531 85.324219 109.40625 C 84.339844 108.796875 83.410156 108.117188 82.527344 107.363281 C 81.648438 106.613281 80.832031 105.800781 80.074219 104.921875 C 79.480469 104.238281 78.929688 103.519531 78.425781 102.761719 C 79.519531 103.484375 80.664062 104.109375 81.863281 104.636719 C 83.0625 105.164062 84.300781 105.582031 85.570312 105.898438 C 86.84375 106.210938 88.132812 106.414062 89.441406 106.507812 C 90.75 106.601562 92.054688 106.582031 93.359375 106.453125 C 94.664062 106.324219 95.945312 106.082031 97.210938 105.734375 C 98.472656 105.382812 99.695312 104.925781 100.878906 104.367188 C 102.0625 103.808594 103.191406 103.152344 104.261719 102.398438 C 105.332031 101.644531 106.332031 100.804688 107.257812 99.882812 C 108.183594 98.957031 109.023438 97.960938 109.777344 96.894531 C 110.53125 95.824219 111.1875 94.703125 111.746094 93.519531 C 112.304688 92.339844 112.757812 91.121094 113.109375 89.863281 C 113.457031 88.605469 113.695312 87.328125 113.824219 86.027344 C 113.949219 84.726562 113.964844 83.425781 113.871094 82.125 C 113.773438 80.824219 113.566406 79.539062 113.246094 78.273438 C 112.925781 77.007812 112.503906 75.777344 111.972656 74.585938 C 111.441406 73.390625 110.8125 72.253906 110.082031 71.167969 C 111.648438 72.207031 113.0625 73.421875 114.324219 74.808594 C 115.589844 76.195312 116.664062 77.71875 117.550781 79.371094 C 118.4375 81.023438 119.109375 82.757812 119.566406 84.574219 C 120.019531 86.394531 120.25 88.238281 120.246094 90.113281 Z M 120.246094 90.113281 " fill-opacity="1" fill-rule="nonzero"/><path fill="#656d78" d="M 99.980469 90.113281 C 99.976562 90.449219 99.90625 90.777344 99.773438 91.085938 C 99.640625 91.398438 99.457031 91.675781 99.214844 91.914062 C 98.972656 92.152344 98.695312 92.335938 98.382812 92.464844 C 98.070312 92.597656 97.742188 92.664062 97.402344 92.667969 C 97.0625 92.667969 96.730469 92.601562 96.414062 92.472656 C 96.097656 92.339844 95.820312 92.15625 95.578125 91.914062 C 95.335938 91.671875 95.152344 91.394531 95.019531 91.078125 C 94.890625 90.765625 94.824219 90.4375 94.824219 90.097656 C 94.824219 89.753906 94.890625 89.425781 95.023438 89.113281 C 95.15625 88.796875 95.34375 88.519531 95.585938 88.28125 C 95.828125 88.039062 96.105469 87.855469 96.421875 87.726562 C 96.738281 87.597656 97.070312 87.53125 97.410156 87.53125 C 97.753906 87.535156 98.082031 87.601562 98.398438 87.730469 C 98.714844 87.863281 98.992188 88.050781 99.234375 88.292969 C 99.472656 88.535156 99.660156 88.8125 99.789062 89.128906 C 99.917969 89.445312 99.984375 89.773438 99.980469 90.113281 Z M 99.980469 90.113281 " fill-opacity="1" fill-rule="nonzero"/><path fill="#f76c82" d="M 105.371094 9.578125 L 105.371094 30.964844 L 1.257812 30.964844 L 1.257812 9.578125 L 14.433594 9.578125 L 14.433594 17.203125 C 14.417969 17.449219 14.429688 17.695312 14.464844 17.9375 C 14.5 18.179688 14.5625 18.417969 14.644531 18.648438 C 14.730469 18.878906 14.835938 19.097656 14.964844 19.308594 C 15.09375 19.515625 15.246094 19.710938 15.414062 19.886719 C 15.582031 20.066406 15.769531 20.226562 15.972656 20.367188 C 16.171875 20.507812 16.386719 20.628906 16.613281 20.726562 C 16.839844 20.820312 17.074219 20.894531 17.316406 20.945312 C 17.554688 20.996094 17.800781 21.019531 18.046875 21.019531 C 18.292969 21.019531 18.539062 20.996094 18.777344 20.945312 C 19.019531 20.894531 19.253906 20.820312 19.480469 20.726562 C 19.707031 20.628906 19.921875 20.507812 20.125 20.367188 C 20.324219 20.226562 20.511719 20.066406 20.679688 19.886719 C 20.847656 19.710938 21 19.515625 21.128906 19.308594 C 21.257812 19.097656 21.363281 18.878906 21.449219 18.648438 C 21.53125 18.417969 21.59375 18.179688 21.628906 17.9375 C 21.664062 17.695312 21.675781 17.449219 21.660156 17.203125 L 21.660156 9.578125 L 37.945312 9.578125 L 37.945312 17.203125 C 37.933594 17.449219 37.941406 17.695312 37.976562 17.9375 C 38.015625 18.179688 38.074219 18.417969 38.160156 18.648438 C 38.242188 18.878906 38.347656 19.097656 38.480469 19.308594 C 38.609375 19.515625 38.757812 19.710938 38.925781 19.886719 C 39.09375 20.066406 39.28125 20.226562 39.484375 20.367188 C 39.683594 20.507812 39.898438 20.628906 40.125 20.726562 C 40.351562 20.820312 40.585938 20.894531 40.828125 20.945312 C 41.070312 20.996094 41.3125 21.019531 41.558594 21.019531 C 41.804688 21.019531 42.050781 20.996094 42.292969 20.945312 C 42.53125 20.894531 42.765625 20.820312 42.992188 20.726562 C 43.21875 20.628906 43.433594 20.507812 43.636719 20.367188 C 43.835938 20.226562 44.023438 20.066406 44.191406 19.886719 C 44.363281 19.710938 44.511719 19.515625 44.640625 19.308594 C 44.769531 19.097656 44.875 18.878906 44.960938 18.648438 C 45.046875 18.417969 45.105469 18.179688 45.140625 17.9375 C 45.175781 17.695312 45.1875 17.449219 45.171875 17.203125 L 45.171875 9.578125 L 61.457031 9.578125 L 61.457031 17.203125 C 61.445312 17.449219 61.457031 17.695312 61.492188 17.9375 C 61.527344 18.179688 61.585938 18.417969 61.671875 18.648438 C 61.753906 18.878906 61.863281 19.097656 61.992188 19.308594 C 62.121094 19.515625 62.269531 19.710938 62.4375 19.886719 C 62.609375 20.066406 62.792969 20.226562 62.996094 20.367188 C 63.199219 20.507812 63.410156 20.628906 63.636719 20.726562 C 63.863281 20.820312 64.097656 20.894531 64.339844 20.945312 C 64.582031 20.996094 64.824219 21.019531 65.070312 21.019531 C 65.320312 21.019531 65.5625 20.996094 65.804688 20.945312 C 66.046875 20.894531 66.28125 20.820312 66.503906 20.726562 C 66.730469 20.628906 66.945312 20.507812 67.148438 20.367188 C 67.351562 20.226562 67.535156 20.066406 67.703125 19.886719 C 67.875 19.710938 68.023438 19.515625 68.152344 19.308594 C 68.28125 19.097656 68.390625 18.878906 68.472656 18.648438 C 68.558594 18.417969 68.617188 18.179688 68.652344 17.9375 C 68.6875 17.695312 68.699219 17.449219 68.683594 17.203125 L 68.683594 9.578125 L 84.972656 9.578125 L 84.972656 17.203125 C 84.957031 17.449219 84.96875 17.695312 85.003906 17.9375 C 85.039062 18.179688 85.097656 18.417969 85.183594 18.648438 C 85.265625 18.878906 85.375 19.097656 85.503906 19.308594 C 85.632812 19.515625 85.78125 19.710938 85.953125 19.886719 C 86.121094 20.066406 86.304688 20.226562 86.507812 20.367188 C 86.710938 20.507812 86.925781 20.628906 87.152344 20.722656 C 87.375 20.820312 87.609375 20.894531 87.851562 20.945312 C 88.09375 20.996094 88.335938 21.019531 88.585938 21.019531 C 88.832031 21.019531 89.074219 20.996094 89.316406 20.945312 C 89.558594 20.894531 89.792969 20.820312 90.019531 20.722656 C 90.246094 20.628906 90.457031 20.507812 90.660156 20.367188 C 90.863281 20.226562 91.046875 20.066406 91.21875 19.886719 C 91.386719 19.710938 91.535156 19.515625 91.664062 19.308594 C 91.792969 19.097656 91.902344 18.878906 91.984375 18.648438 C 92.070312 18.417969 92.128906 18.179688 92.164062 17.9375 C 92.199219 17.695312 92.210938 17.449219 92.199219 17.203125 L 92.199219 9.578125 Z M 105.371094 9.578125 " fill-opacity="1" fill-rule="nonzero"/><path fill="#eb5463" d="M 98.976562 9.578125 L 105.371094 9.578125 L 105.371094 30.964844 L 98.976562 30.964844 Z M 98.976562 9.578125 " fill-opacity="1" fill-rule="nonzero"/><g clip-path="url(#ed12ea9da9)"><path fill="#000000" d="M 77.3125 102.171875 L 1.257812 102.171875 C 1.09375 102.171875 0.9375 102.140625 0.785156 102.078125 C 0.632812 102.015625 0.5 101.925781 0.382812 101.808594 C 0.265625 101.695312 0.175781 101.558594 0.113281 101.410156 C 0.0507812 101.257812 0.0195312 101.101562 0.0195312 100.9375 L 0.0195312 30.953125 C 0.0195312 30.789062 0.0507812 30.632812 0.113281 30.480469 C 0.175781 30.332031 0.265625 30.199219 0.382812 30.082031 C 0.5 29.964844 0.632812 29.875 0.785156 29.8125 C 0.9375 29.75 1.09375 29.71875 1.257812 29.71875 L 105.371094 29.71875 C 105.535156 29.71875 105.695312 29.75 105.847656 29.8125 C 106 29.875 106.132812 29.964844 106.25 30.082031 C 106.367188 30.199219 106.453125 30.332031 106.519531 30.480469 C 106.582031 30.632812 106.613281 30.789062 106.613281 30.953125 L 106.613281 68.773438 C 106.613281 69.203125 106.433594 69.539062 106.078125 69.785156 C 105.726562 70.03125 105.34375 70.082031 104.9375 69.933594 C 102.832031 69.164062 100.65625 68.726562 98.414062 68.628906 C 96.171875 68.53125 93.96875 68.769531 91.800781 69.351562 C 91.042969 69.558594 90.300781 69.800781 89.570312 70.082031 C 88.039062 70.679688 86.59375 71.441406 85.230469 72.363281 C 82.769531 74.035156 80.742188 76.125 79.144531 78.632812 C 78.039062 80.355469 77.199219 82.195312 76.625 84.15625 C 76.050781 86.117188 75.769531 88.117188 75.773438 90.160156 C 75.773438 91.089844 75.839844 92.007812 75.972656 92.925781 L 75.972656 93.113281 C 75.972656 93.171875 75.972656 93.222656 75.972656 93.285156 C 76.34375 95.792969 77.136719 98.164062 78.351562 100.394531 C 78.589844 100.804688 78.589844 101.214844 78.351562 101.628906 C 78.101562 101.996094 77.757812 102.175781 77.3125 102.171875 Z M 2.5 99.703125 L 75.328125 99.703125 C 74.480469 97.785156 73.902344 95.789062 73.59375 93.714844 C 73.582031 93.601562 73.582031 93.484375 73.59375 93.371094 L 73.59375 93.234375 C 73.445312 92.199219 73.371094 91.160156 73.371094 90.113281 C 73.375 88.15625 73.613281 86.230469 74.089844 84.332031 C 74.566406 82.433594 75.261719 80.621094 76.179688 78.890625 C 77.101562 77.164062 78.214844 75.570312 79.523438 74.109375 C 80.832031 72.652344 82.296875 71.371094 83.917969 70.265625 C 85.4375 69.265625 87.050781 68.441406 88.75 67.796875 C 89.5625 67.480469 90.390625 67.207031 91.230469 66.980469 C 93.34375 66.414062 95.496094 66.136719 97.6875 66.148438 C 99.875 66.160156 102.027344 66.464844 104.132812 67.054688 L 104.132812 32.1875 L 2.5 32.1875 Z M 2.5 99.703125 " fill-opacity="1" fill-rule="nonzero"/></g><g clip-path="url(#07d4140c2f)"><path fill="#000000" d="M 105.371094 32.199219 L 1.257812 32.199219 C 1.09375 32.199219 0.9375 32.167969 0.785156 32.105469 C 0.632812 32.042969 0.5 31.957031 0.382812 31.839844 C 0.265625 31.722656 0.175781 31.589844 0.113281 31.4375 C 0.0507812 31.289062 0.0195312 31.128906 0.0195312 30.964844 L 0.0195312 9.578125 C 0.0195312 9.414062 0.0507812 9.253906 0.113281 9.105469 C 0.175781 8.953125 0.265625 8.820312 0.382812 8.703125 C 0.5 8.589844 0.632812 8.5 0.785156 8.4375 C 0.9375 8.375 1.09375 8.34375 1.257812 8.34375 L 14.433594 8.34375 C 14.597656 8.34375 14.757812 8.375 14.910156 8.4375 C 15.058594 8.5 15.195312 8.589844 15.308594 8.703125 C 15.425781 8.820312 15.515625 8.953125 15.578125 9.105469 C 15.640625 9.253906 15.671875 9.414062 15.671875 9.578125 L 15.671875 17.203125 C 15.648438 17.53125 15.691406 17.851562 15.800781 18.164062 C 15.914062 18.472656 16.078125 18.75 16.304688 18.988281 C 16.53125 19.230469 16.792969 19.417969 17.097656 19.546875 C 17.398438 19.679688 17.714844 19.746094 18.046875 19.746094 C 18.378906 19.746094 18.695312 19.679688 18.996094 19.546875 C 19.300781 19.417969 19.5625 19.230469 19.789062 18.988281 C 20.015625 18.75 20.183594 18.472656 20.292969 18.164062 C 20.402344 17.851562 20.445312 17.53125 20.421875 17.203125 L 20.421875 9.578125 C 20.421875 9.414062 20.453125 9.253906 20.515625 9.105469 C 20.578125 8.953125 20.667969 8.820312 20.785156 8.703125 C 20.898438 8.589844 21.035156 8.5 21.1875 8.4375 C 21.335938 8.375 21.496094 8.34375 21.660156 8.34375 L 37.945312 8.34375 C 38.109375 8.34375 38.269531 8.375 38.421875 8.4375 C 38.574219 8.5 38.707031 8.589844 38.824219 8.703125 C 38.9375 8.820312 39.027344 8.953125 39.089844 9.105469 C 39.15625 9.253906 39.1875 9.414062 39.1875 9.578125 L 39.1875 17.203125 C 39.160156 17.53125 39.203125 17.851562 39.316406 18.164062 C 39.425781 18.472656 39.59375 18.75 39.816406 18.988281 C 40.042969 19.230469 40.304688 19.417969 40.609375 19.546875 C 40.914062 19.679688 41.230469 19.746094 41.558594 19.746094 C 41.890625 19.746094 42.207031 19.679688 42.507812 19.546875 C 42.8125 19.417969 43.078125 19.230469 43.300781 18.988281 C 43.527344 18.75 43.695312 18.472656 43.804688 18.164062 C 43.914062 17.851562 43.957031 17.53125 43.933594 17.203125 L 43.933594 9.578125 C 43.933594 9.414062 43.964844 9.253906 44.027344 9.105469 C 44.089844 8.953125 44.179688 8.820312 44.296875 8.703125 C 44.414062 8.589844 44.546875 8.5 44.699219 8.4375 C 44.851562 8.375 45.007812 8.34375 45.171875 8.34375 L 61.457031 8.34375 C 61.625 8.34375 61.78125 8.375 61.933594 8.4375 C 62.085938 8.5 62.21875 8.589844 62.335938 8.703125 C 62.453125 8.820312 62.542969 8.953125 62.605469 9.105469 C 62.667969 9.253906 62.699219 9.414062 62.699219 9.578125 L 62.699219 17.203125 C 62.675781 17.53125 62.71875 17.851562 62.828125 18.164062 C 62.9375 18.472656 63.105469 18.75 63.328125 18.988281 C 63.554688 19.230469 63.820312 19.417969 64.121094 19.546875 C 64.425781 19.679688 64.742188 19.746094 65.070312 19.746094 C 65.402344 19.746094 65.71875 19.679688 66.023438 19.546875 C 66.324219 19.417969 66.589844 19.230469 66.8125 18.988281 C 67.039062 18.75 67.207031 18.472656 67.316406 18.164062 C 67.425781 17.851562 67.46875 17.53125 67.445312 17.203125 L 67.445312 9.578125 C 67.445312 9.414062 67.476562 9.253906 67.539062 9.105469 C 67.601562 8.953125 67.691406 8.820312 67.808594 8.703125 C 67.925781 8.589844 68.058594 8.5 68.210938 8.4375 C 68.363281 8.375 68.519531 8.34375 68.683594 8.34375 L 84.972656 8.34375 C 85.136719 8.34375 85.292969 8.375 85.445312 8.4375 C 85.597656 8.5 85.730469 8.589844 85.847656 8.703125 C 85.964844 8.820312 86.054688 8.953125 86.117188 9.105469 C 86.179688 9.253906 86.210938 9.414062 86.210938 9.578125 L 86.210938 17.203125 C 86.1875 17.53125 86.230469 17.851562 86.339844 18.164062 C 86.449219 18.472656 86.617188 18.75 86.84375 18.988281 C 87.066406 19.230469 87.332031 19.417969 87.632812 19.546875 C 87.9375 19.679688 88.253906 19.746094 88.585938 19.746094 C 88.914062 19.746094 89.230469 19.679688 89.535156 19.546875 C 89.835938 19.417969 90.101562 19.230469 90.328125 18.988281 C 90.550781 18.75 90.71875 18.472656 90.828125 18.164062 C 90.9375 17.851562 90.980469 17.53125 90.957031 17.203125 L 90.957031 9.578125 C 90.957031 9.414062 90.988281 9.253906 91.050781 9.105469 C 91.113281 8.953125 91.203125 8.820312 91.320312 8.703125 C 91.4375 8.589844 91.570312 8.5 91.722656 8.4375 C 91.875 8.375 92.03125 8.34375 92.199219 8.34375 L 105.371094 8.34375 C 105.535156 8.34375 105.695312 8.375 105.847656 8.4375 C 106 8.5 106.132812 8.589844 106.25 8.703125 C 106.367188 8.820312 106.453125 8.953125 106.519531 9.105469 C 106.582031 9.253906 106.613281 9.414062 106.613281 9.578125 L 106.613281 30.964844 C 106.613281 31.128906 106.582031 31.289062 106.519531 31.4375 C 106.453125 31.589844 106.367188 31.722656 106.25 31.839844 C 106.132812 31.957031 106 32.042969 105.847656 32.105469 C 105.695312 32.167969 105.535156 32.199219 105.371094 32.199219 Z M 2.5 29.730469 L 104.132812 29.730469 L 104.132812 10.8125 L 93.4375 10.8125 L 93.4375 17.203125 C 93.453125 17.53125 93.4375 17.859375 93.386719 18.183594 C 93.335938 18.507812 93.253906 18.824219 93.140625 19.128906 C 93.027344 19.4375 92.882812 19.730469 92.707031 20.007812 C 92.53125 20.285156 92.332031 20.542969 92.105469 20.78125 C 91.878906 21.019531 91.628906 21.234375 91.359375 21.421875 C 91.089844 21.609375 90.804688 21.765625 90.5 21.894531 C 90.199219 22.023438 89.886719 22.121094 89.5625 22.1875 C 89.238281 22.253906 88.914062 22.289062 88.585938 22.289062 C 88.253906 22.289062 87.929688 22.253906 87.605469 22.1875 C 87.285156 22.121094 86.972656 22.023438 86.667969 21.894531 C 86.367188 21.765625 86.078125 21.609375 85.808594 21.421875 C 85.539062 21.234375 85.289062 21.019531 85.0625 20.78125 C 84.835938 20.542969 84.636719 20.285156 84.460938 20.007812 C 84.285156 19.730469 84.144531 19.4375 84.027344 19.128906 C 83.914062 18.824219 83.832031 18.507812 83.78125 18.183594 C 83.730469 17.859375 83.714844 17.53125 83.730469 17.203125 L 83.730469 10.8125 L 69.925781 10.8125 L 69.925781 17.203125 C 69.941406 17.53125 69.925781 17.859375 69.875 18.183594 C 69.824219 18.507812 69.742188 18.824219 69.628906 19.128906 C 69.511719 19.4375 69.371094 19.730469 69.195312 20.007812 C 69.019531 20.285156 68.820312 20.546875 68.59375 20.78125 C 68.367188 21.019531 68.117188 21.234375 67.847656 21.421875 C 67.578125 21.609375 67.289062 21.765625 66.988281 21.894531 C 66.683594 22.023438 66.371094 22.121094 66.050781 22.1875 C 65.726562 22.253906 65.402344 22.289062 65.070312 22.289062 C 64.742188 22.289062 64.417969 22.253906 64.09375 22.1875 C 63.769531 22.121094 63.457031 22.023438 63.15625 21.894531 C 62.851562 21.765625 62.566406 21.609375 62.296875 21.421875 C 62.027344 21.234375 61.777344 21.019531 61.550781 20.78125 C 61.324219 20.546875 61.125 20.285156 60.949219 20.007812 C 60.773438 19.730469 60.628906 19.4375 60.515625 19.128906 C 60.402344 18.824219 60.320312 18.507812 60.269531 18.183594 C 60.21875 17.859375 60.203125 17.53125 60.21875 17.203125 L 60.21875 10.8125 L 46.410156 10.8125 L 46.410156 17.203125 C 46.429688 17.53125 46.410156 17.859375 46.363281 18.183594 C 46.3125 18.507812 46.230469 18.824219 46.117188 19.128906 C 46 19.4375 45.855469 19.730469 45.683594 20.007812 C 45.507812 20.285156 45.308594 20.546875 45.082031 20.78125 C 44.855469 21.019531 44.605469 21.234375 44.335938 21.421875 C 44.066406 21.609375 43.777344 21.765625 43.476562 21.894531 C 43.171875 22.023438 42.859375 22.121094 42.539062 22.1875 C 42.214844 22.253906 41.890625 22.289062 41.558594 22.289062 C 41.230469 22.289062 40.902344 22.253906 40.582031 22.1875 C 40.257812 22.121094 39.945312 22.023438 39.644531 21.894531 C 39.339844 21.765625 39.054688 21.609375 38.785156 21.421875 C 38.515625 21.234375 38.265625 21.019531 38.039062 20.78125 C 37.8125 20.546875 37.609375 20.285156 37.4375 20.007812 C 37.261719 19.730469 37.117188 19.4375 37.003906 19.128906 C 36.890625 18.824219 36.808594 18.507812 36.757812 18.183594 C 36.707031 17.859375 36.691406 17.53125 36.707031 17.203125 L 36.707031 10.8125 L 22.898438 10.8125 L 22.898438 17.203125 C 22.917969 17.53125 22.898438 17.859375 22.847656 18.183594 C 22.800781 18.507812 22.71875 18.824219 22.601562 19.128906 C 22.488281 19.4375 22.34375 19.730469 22.171875 20.007812 C 21.996094 20.285156 21.796875 20.546875 21.566406 20.78125 C 21.339844 21.019531 21.09375 21.234375 20.824219 21.421875 C 20.550781 21.609375 20.265625 21.765625 19.964844 21.894531 C 19.660156 22.023438 19.347656 22.121094 19.023438 22.1875 C 18.703125 22.253906 18.375 22.289062 18.046875 22.289062 C 17.71875 22.289062 17.390625 22.253906 17.070312 22.1875 C 16.746094 22.121094 16.433594 22.023438 16.132812 21.894531 C 15.828125 21.765625 15.542969 21.609375 15.273438 21.421875 C 15 21.234375 14.753906 21.019531 14.527344 20.78125 C 14.300781 20.546875 14.097656 20.285156 13.925781 20.007812 C 13.75 19.730469 13.605469 19.4375 13.492188 19.128906 C 13.375 18.824219 13.292969 18.507812 13.246094 18.183594 C 13.195312 17.859375 13.179688 17.53125 13.195312 17.203125 L 13.195312 10.8125 L 2.5 10.8125 Z M 2.5 29.730469 " fill-opacity="1" fill-rule="nonzero"/></g><path fill="#f76c82" d="M 34.488281 57.800781 L 50.847656 57.800781 L 50.847656 74.105469 L 34.488281 74.105469 Z M 34.488281 57.800781 " fill-opacity="1" fill-rule="nonzero"/><path fill="#eb5463" d="M 50.847656 57.800781 L 50.847656 74.105469 L 34.488281 74.105469 Z M 50.847656 57.800781 " fill-opacity="1" fill-rule="nonzero"/><path fill="#000000" d="M 50.835938 75.339844 L 34.488281 75.339844 C 34.324219 75.339844 34.164062 75.308594 34.015625 75.246094 C 33.863281 75.183594 33.726562 75.09375 33.613281 74.976562 C 33.496094 74.859375 33.40625 74.726562 33.34375 74.578125 C 33.28125 74.425781 33.25 74.269531 33.25 74.105469 L 33.25 57.800781 C 33.25 57.636719 33.28125 57.476562 33.34375 57.328125 C 33.40625 57.175781 33.496094 57.042969 33.613281 56.925781 C 33.726562 56.8125 33.863281 56.722656 34.015625 56.660156 C 34.164062 56.597656 34.324219 56.566406 34.488281 56.566406 L 50.835938 56.566406 C 51 56.566406 51.160156 56.597656 51.3125 56.660156 C 51.464844 56.722656 51.597656 56.8125 51.714844 56.925781 C 51.828125 57.042969 51.917969 57.175781 51.980469 57.328125 C 52.042969 57.476562 52.078125 57.636719 52.078125 57.800781 L 52.078125 74.105469 C 52.078125 74.269531 52.042969 74.425781 51.980469 74.578125 C 51.917969 74.726562 51.828125 74.859375 51.714844 74.976562 C 51.597656 75.09375 51.464844 75.183594 51.3125 75.246094 C 51.160156 75.308594 51 75.339844 50.835938 75.339844 Z M 35.714844 72.871094 L 49.597656 72.871094 L 49.597656 59.035156 L 35.726562 59.035156 Z M 35.714844 72.871094 " fill-opacity="1" fill-rule="nonzero"/><path fill="#000000" d="M 27.101562 94.125 L 15.6875 94.125 C 15.523438 94.125 15.363281 94.09375 15.210938 94.03125 C 15.058594 93.96875 14.925781 93.878906 14.808594 93.761719 C 14.691406 93.644531 14.605469 93.511719 14.539062 93.363281 C 14.476562 93.210938 14.445312 93.054688 14.445312 92.890625 L 14.445312 81.523438 C 14.445312 81.359375 14.476562 81.199219 14.539062 81.050781 C 14.605469 80.898438 14.691406 80.765625 14.808594 80.648438 C 14.925781 80.535156 15.058594 80.445312 15.210938 80.382812 C 15.363281 80.320312 15.523438 80.289062 15.6875 80.289062 L 27.101562 80.289062 C 27.265625 80.289062 27.421875 80.320312 27.574219 80.382812 C 27.726562 80.445312 27.863281 80.535156 27.976562 80.648438 C 28.09375 80.765625 28.183594 80.898438 28.246094 81.050781 C 28.308594 81.199219 28.339844 81.359375 28.339844 81.523438 L 28.339844 92.890625 C 28.339844 93.054688 28.308594 93.210938 28.246094 93.363281 C 28.183594 93.511719 28.09375 93.644531 27.976562 93.761719 C 27.863281 93.878906 27.726562 93.96875 27.574219 94.03125 C 27.421875 94.09375 27.265625 94.125 27.101562 94.125 Z M 16.925781 91.65625 L 25.863281 91.65625 L 25.863281 82.757812 L 16.925781 82.757812 Z M 16.925781 91.65625 " fill-opacity="1" fill-rule="nonzero"/><path fill="#000000" d="M 48.359375 94.125 L 36.96875 94.125 C 36.804688 94.125 36.644531 94.09375 36.492188 94.03125 C 36.339844 93.96875 36.207031 93.878906 36.089844 93.761719 C 35.976562 93.644531 35.886719 93.511719 35.820312 93.363281 C 35.757812 93.210938 35.726562 93.054688 35.726562 92.890625 L 35.726562 81.523438 C 35.726562 81.359375 35.757812 81.199219 35.820312 81.050781 C 35.886719 80.898438 35.976562 80.765625 36.089844 80.648438 C 36.207031 80.535156 36.339844 80.445312 36.492188 80.382812 C 36.644531 80.320312 36.804688 80.289062 36.96875 80.289062 L 48.359375 80.289062 C 48.523438 80.289062 48.679688 80.320312 48.832031 80.382812 C 48.984375 80.445312 49.117188 80.535156 49.234375 80.648438 C 49.351562 80.765625 49.441406 80.898438 49.503906 81.050781 C 49.566406 81.199219 49.597656 81.359375 49.597656 81.523438 L 49.597656 92.890625 C 49.597656 93.054688 49.566406 93.210938 49.503906 93.363281 C 49.441406 93.511719 49.351562 93.644531 49.234375 93.761719 C 49.117188 93.878906 48.984375 93.96875 48.832031 94.03125 C 48.679688 94.09375 48.523438 94.125 48.359375 94.125 Z M 38.183594 91.65625 L 47.117188 91.65625 L 47.117188 82.757812 L 38.207031 82.757812 Z M 38.183594 91.65625 " fill-opacity="1" fill-rule="nonzero"/><path fill="#000000" d="M 69.664062 51.617188 L 58.273438 51.617188 C 58.109375 51.617188 57.949219 51.585938 57.800781 51.523438 C 57.648438 51.460938 57.511719 51.371094 57.398438 51.253906 C 57.28125 51.136719 57.191406 51.003906 57.128906 50.855469 C 57.066406 50.703125 57.035156 50.546875 57.035156 50.382812 L 57.035156 39.015625 C 57.035156 38.851562 57.066406 38.691406 57.128906 38.542969 C 57.191406 38.390625 57.28125 38.257812 57.398438 38.140625 C 57.511719 38.027344 57.648438 37.9375 57.800781 37.875 C 57.949219 37.8125 58.109375 37.78125 58.273438 37.78125 L 69.6875 37.78125 C 69.851562 37.78125 70.011719 37.8125 70.164062 37.875 C 70.316406 37.9375 70.449219 38.027344 70.566406 38.140625 C 70.679688 38.257812 70.769531 38.390625 70.832031 38.542969 C 70.898438 38.691406 70.929688 38.851562 70.929688 39.015625 L 70.929688 50.382812 C 70.929688 50.546875 70.894531 50.707031 70.832031 50.859375 C 70.765625 51.011719 70.675781 51.148438 70.554688 51.261719 C 70.4375 51.378906 70.300781 51.46875 70.144531 51.527344 C 69.992188 51.589844 69.832031 51.617188 69.664062 51.617188 Z M 59.488281 49.148438 L 68.425781 49.148438 L 68.425781 40.25 L 59.511719 40.25 Z M 59.488281 49.148438 " fill-opacity="1" fill-rule="nonzero"/><path fill="#000000" d="M 69.664062 94.125 L 58.273438 94.125 C 58.109375 94.125 57.949219 94.09375 57.800781 94.03125 C 57.648438 93.96875 57.511719 93.878906 57.398438 93.761719 C 57.28125 93.644531 57.191406 93.511719 57.128906 93.363281 C 57.066406 93.210938 57.035156 93.054688 57.035156 92.890625 L 57.035156 81.523438 C 57.035156 81.359375 57.066406 81.199219 57.128906 81.050781 C 57.191406 80.898438 57.28125 80.765625 57.398438 80.648438 C 57.511719 80.535156 57.648438 80.445312 57.800781 80.382812 C 57.949219 80.320312 58.109375 80.289062 58.273438 80.289062 L 69.6875 80.289062 C 69.851562 80.289062 70.011719 80.320312 70.164062 80.382812 C 70.316406 80.445312 70.449219 80.535156 70.566406 80.648438 C 70.679688 80.765625 70.769531 80.898438 70.832031 81.050781 C 70.898438 81.199219 70.929688 81.359375 70.929688 81.523438 L 70.929688 92.890625 C 70.929688 93.054688 70.894531 93.214844 70.832031 93.367188 C 70.765625 93.519531 70.675781 93.65625 70.554688 93.769531 C 70.4375 93.886719 70.300781 93.976562 70.144531 94.035156 C 69.992188 94.097656 69.832031 94.128906 69.664062 94.125 Z M 59.488281 91.65625 L 68.425781 91.65625 L 68.425781 82.757812 L 59.511719 82.757812 Z M 59.488281 91.65625 " fill-opacity="1" fill-rule="nonzero"/><path fill="#000000" d="M 27.101562 51.617188 L 15.6875 51.617188 C 15.523438 51.617188 15.363281 51.585938 15.210938 51.523438 C 15.058594 51.460938 14.925781 51.371094 14.808594 51.253906 C 14.691406 51.136719 14.605469 51.003906 14.539062 50.855469 C 14.476562 50.703125 14.445312 50.546875 14.445312 50.382812 L 14.445312 39.015625 C 14.445312 38.851562 14.476562 38.691406 14.539062 38.542969 C 14.605469 38.390625 14.691406 38.257812 14.808594 38.140625 C 14.925781 38.027344 15.058594 37.9375 15.210938 37.875 C 15.363281 37.8125 15.523438 37.78125 15.6875 37.78125 L 27.101562 37.78125 C 27.265625 37.78125 27.421875 37.8125 27.574219 37.875 C 27.726562 37.9375 27.863281 38.027344 27.976562 38.140625 C 28.09375 38.257812 28.183594 38.390625 28.246094 38.542969 C 28.308594 38.691406 28.339844 38.851562 28.339844 39.015625 L 28.339844 50.382812 C 28.339844 50.546875 28.308594 50.703125 28.246094 50.855469 C 28.183594 51.003906 28.09375 51.136719 27.976562 51.253906 C 27.863281 51.371094 27.726562 51.460938 27.574219 51.523438 C 27.421875 51.585938 27.265625 51.617188 27.101562 51.617188 Z M 16.925781 49.148438 L 25.863281 49.148438 L 25.863281 40.25 L 16.925781 40.25 Z M 16.925781 49.148438 " fill-opacity="1" fill-rule="nonzero"/><path fill="#000000" d="M 48.359375 51.617188 L 36.96875 51.617188 C 36.804688 51.617188 36.644531 51.585938 36.492188 51.523438 C 36.339844 51.460938 36.207031 51.371094 36.089844 51.253906 C 35.976562 51.136719 35.886719 51.003906 35.820312 50.855469 C 35.757812 50.703125 35.726562 50.546875 35.726562 50.382812 L 35.726562 39.015625 C 35.726562 38.851562 35.757812 38.691406 35.820312 38.542969 C 35.886719 38.390625 35.976562 38.257812 36.089844 38.140625 C 36.207031 38.027344 36.339844 37.9375 36.492188 37.875 C 36.644531 37.8125 36.804688 37.78125 36.96875 37.78125 L 48.359375 37.78125 C 48.523438 37.78125 48.679688 37.8125 48.832031 37.875 C 48.984375 37.9375 49.117188 38.027344 49.234375 38.140625 C 49.351562 38.257812 49.441406 38.390625 49.503906 38.542969 C 49.566406 38.691406 49.597656 38.851562 49.597656 39.015625 L 49.597656 50.382812 C 49.597656 50.546875 49.566406 50.703125 49.503906 50.855469 C 49.441406 51.003906 49.351562 51.136719 49.234375 51.253906 C 49.117188 51.371094 48.984375 51.460938 48.832031 51.523438 C 48.679688 51.585938 48.523438 51.617188 48.359375 51.617188 Z M 38.183594 49.148438 L 47.117188 49.148438 L 47.117188 40.25 L 38.207031 40.25 Z M 38.183594 49.148438 " fill-opacity="1" fill-rule="nonzero"/><path fill="#000000" d="M 69.664062 72.871094 L 58.273438 72.871094 C 58.109375 72.871094 57.949219 72.839844 57.800781 72.777344 C 57.648438 72.714844 57.511719 72.625 57.398438 72.507812 C 57.28125 72.390625 57.191406 72.257812 57.128906 72.109375 C 57.066406 71.957031 57.035156 71.800781 57.035156 71.636719 L 57.035156 60.269531 C 57.035156 60.105469 57.066406 59.945312 57.128906 59.796875 C 57.191406 59.644531 57.28125 59.511719 57.398438 59.394531 C 57.511719 59.28125 57.648438 59.191406 57.800781 59.128906 C 57.949219 59.066406 58.109375 59.035156 58.273438 59.035156 L 69.6875 59.035156 C 69.851562 59.035156 70.011719 59.066406 70.164062 59.128906 C 70.316406 59.191406 70.449219 59.28125 70.566406 59.394531 C 70.679688 59.511719 70.769531 59.644531 70.832031 59.796875 C 70.898438 59.945312 70.929688 60.105469 70.929688 60.269531 L 70.929688 71.636719 C 70.929688 71.800781 70.894531 71.960938 70.832031 72.113281 C 70.765625 72.265625 70.675781 72.402344 70.554688 72.515625 C 70.4375 72.632812 70.300781 72.722656 70.144531 72.78125 C 69.992188 72.84375 69.832031 72.875 69.664062 72.871094 Z M 59.488281 70.402344 L 68.425781 70.402344 L 68.425781 61.503906 L 59.511719 61.503906 Z M 59.488281 70.402344 " fill-opacity="1" fill-rule="nonzero"/><path fill="#000000" d="M 27.101562 72.871094 L 15.6875 72.871094 C 15.523438 72.871094 15.363281 72.839844 15.210938 72.777344 C 15.058594 72.714844 14.925781 72.625 14.808594 72.507812 C 14.691406 72.390625 14.605469 72.257812 14.539062 72.109375 C 14.476562 71.957031 14.445312 71.800781 14.445312 71.636719 L 14.445312 60.269531 C 14.445312 60.105469 14.476562 59.945312 14.539062 59.796875 C 14.605469 59.644531 14.691406 59.511719 14.808594 59.394531 C 14.925781 59.28125 15.058594 59.191406 15.210938 59.128906 C 15.363281 59.066406 15.523438 59.035156 15.6875 59.035156 L 27.101562 59.035156 C 27.265625 59.035156 27.421875 59.066406 27.574219 59.128906 C 27.726562 59.191406 27.863281 59.28125 27.976562 59.394531 C 28.09375 59.511719 28.183594 59.644531 28.246094 59.796875 C 28.308594 59.945312 28.339844 60.105469 28.339844 60.269531 L 28.339844 71.636719 C 28.339844 71.800781 28.308594 71.957031 28.246094 72.109375 C 28.183594 72.257812 28.09375 72.390625 27.976562 72.507812 C 27.863281 72.625 27.726562 72.714844 27.574219 72.777344 C 27.421875 72.839844 27.265625 72.871094 27.101562 72.871094 Z M 16.925781 70.402344 L 25.863281 70.402344 L 25.863281 61.503906 L 16.925781 61.503906 Z M 16.925781 70.402344 " fill-opacity="1" fill-rule="nonzero"/><path fill="#000000" d="M 90.945312 51.617188 L 79.53125 51.617188 C 79.367188 51.617188 79.207031 51.585938 79.054688 51.523438 C 78.902344 51.460938 78.769531 51.371094 78.652344 51.253906 C 78.539062 51.136719 78.449219 51.003906 78.386719 50.855469 C 78.320312 50.703125 78.289062 50.546875 78.289062 50.382812 L 78.289062 39.015625 C 78.289062 38.851562 78.320312 38.691406 78.386719 38.542969 C 78.449219 38.390625 78.539062 38.257812 78.652344 38.140625 C 78.769531 38.027344 78.902344 37.9375 79.054688 37.875 C 79.207031 37.8125 79.367188 37.78125 79.53125 37.78125 L 90.945312 37.78125 C 91.109375 37.78125 91.269531 37.8125 91.417969 37.875 C 91.570312 37.9375 91.707031 38.027344 91.820312 38.140625 C 91.9375 38.257812 92.027344 38.390625 92.089844 38.542969 C 92.152344 38.691406 92.183594 38.851562 92.183594 39.015625 L 92.183594 50.382812 C 92.183594 50.546875 92.152344 50.703125 92.089844 50.855469 C 92.027344 51.003906 91.9375 51.136719 91.820312 51.253906 C 91.707031 51.371094 91.570312 51.460938 91.417969 51.523438 C 91.269531 51.585938 91.109375 51.617188 90.945312 51.617188 Z M 80.769531 49.148438 L 89.707031 49.148438 L 89.707031 40.25 L 80.769531 40.25 Z M 80.769531 49.148438 " fill-opacity="1" fill-rule="nonzero"/><path fill="#000000" d="M 84.054688 72.871094 L 79.53125 72.871094 C 79.367188 72.871094 79.207031 72.839844 79.054688 72.777344 C 78.902344 72.714844 78.769531 72.625 78.652344 72.507812 C 78.539062 72.390625 78.449219 72.257812 78.386719 72.109375 C 78.320312 71.957031 78.289062 71.800781 78.289062 71.636719 L 78.289062 60.269531 C 78.289062 60.105469 78.320312 59.945312 78.386719 59.796875 C 78.449219 59.644531 78.539062 59.511719 78.652344 59.394531 C 78.769531 59.28125 78.902344 59.191406 79.054688 59.128906 C 79.207031 59.066406 79.367188 59.035156 79.53125 59.035156 L 90.945312 59.035156 C 91.109375 59.035156 91.269531 59.066406 91.417969 59.128906 C 91.570312 59.191406 91.707031 59.28125 91.820312 59.394531 C 91.9375 59.511719 92.027344 59.644531 92.089844 59.796875 C 92.152344 59.945312 92.183594 60.105469 92.183594 60.269531 L 92.183594 68.265625 C 92.195312 68.550781 92.117188 68.804688 91.953125 69.035156 C 91.785156 69.265625 91.566406 69.421875 91.292969 69.5 C 90.710938 69.664062 90.140625 69.855469 89.582031 70.082031 C 88.046875 70.679688 86.59375 71.4375 85.230469 72.363281 L 84.808594 72.660156 C 84.582031 72.8125 84.328125 72.882812 84.054688 72.871094 Z M 80.769531 70.402344 L 83.644531 70.402344 L 83.804688 70.289062 C 85.335938 69.257812 86.957031 68.40625 88.675781 67.734375 C 89 67.597656 89.347656 67.476562 89.707031 67.363281 L 89.707031 61.503906 L 80.769531 61.503906 Z M 80.769531 70.402344 " fill-opacity="1" fill-rule="nonzero"/><path fill="#000000" d="M 41.367188 69.757812 C 41.023438 69.757812 40.730469 69.632812 40.488281 69.390625 L 38.589844 67.5 C 38.488281 67.382812 38.414062 67.25 38.363281 67.101562 C 38.308594 66.957031 38.289062 66.804688 38.292969 66.648438 C 38.300781 66.496094 38.335938 66.347656 38.398438 66.203125 C 38.460938 66.0625 38.546875 65.933594 38.65625 65.824219 C 38.765625 65.714844 38.894531 65.628906 39.035156 65.566406 C 39.179688 65.503906 39.328125 65.46875 39.484375 65.464844 C 39.640625 65.457031 39.792969 65.480469 39.941406 65.53125 C 40.085938 65.582031 40.21875 65.660156 40.339844 65.761719 L 41.367188 66.773438 L 45 63.179688 C 45.117188 63.0625 45.25 62.972656 45.402344 62.910156 C 45.554688 62.847656 45.714844 62.816406 45.878906 62.816406 C 46.042969 62.816406 46.203125 62.847656 46.355469 62.910156 C 46.507812 62.972656 46.644531 63.0625 46.757812 63.179688 C 46.875 63.296875 46.964844 63.429688 47.027344 63.582031 C 47.089844 63.730469 47.121094 63.886719 47.121094 64.050781 C 47.121094 64.214844 47.089844 64.371094 47.027344 64.523438 C 46.964844 64.671875 46.875 64.804688 46.757812 64.921875 L 42.246094 69.351562 C 42.011719 69.613281 41.71875 69.746094 41.367188 69.757812 Z M 41.367188 69.757812 " fill-opacity="1" fill-rule="nonzero"/><path fill="#000000" d="M 18.039062 22.042969 C 17.722656 22.042969 17.40625 22.011719 17.09375 21.949219 C 16.78125 21.886719 16.480469 21.792969 16.183594 21.671875 C 15.890625 21.550781 15.613281 21.398438 15.347656 21.222656 C 15.082031 21.046875 14.839844 20.847656 14.613281 20.621094 C 14.386719 20.398438 14.1875 20.152344 14.011719 19.890625 C 13.835938 19.625 13.683594 19.347656 13.5625 19.054688 C 13.441406 18.761719 13.351562 18.457031 13.289062 18.148438 C 13.226562 17.835938 13.195312 17.523438 13.195312 17.203125 L 13.195312 4.761719 C 13.210938 4.457031 13.253906 4.152344 13.328125 3.855469 C 13.402344 3.554688 13.503906 3.265625 13.632812 2.988281 C 13.761719 2.707031 13.914062 2.445312 14.09375 2.195312 C 14.273438 1.945312 14.476562 1.714844 14.699219 1.5 C 14.921875 1.289062 15.164062 1.101562 15.425781 0.933594 C 15.683594 0.769531 15.957031 0.628906 16.246094 0.515625 C 16.53125 0.402344 16.824219 0.316406 17.128906 0.257812 C 17.433594 0.199219 17.738281 0.167969 18.046875 0.167969 C 18.355469 0.167969 18.660156 0.199219 18.964844 0.257812 C 19.269531 0.316406 19.5625 0.402344 19.847656 0.515625 C 20.136719 0.628906 20.410156 0.769531 20.667969 0.933594 C 20.929688 1.101562 21.171875 1.289062 21.394531 1.5 C 21.617188 1.714844 21.820312 1.945312 22 2.195312 C 22.179688 2.445312 22.332031 2.707031 22.460938 2.988281 C 22.589844 3.265625 22.691406 3.554688 22.765625 3.855469 C 22.839844 4.152344 22.882812 4.457031 22.898438 4.761719 L 22.898438 17.203125 C 22.898438 17.523438 22.867188 17.835938 22.804688 18.148438 C 22.742188 18.457031 22.648438 18.761719 22.527344 19.054688 C 22.402344 19.347656 22.253906 19.625 22.078125 19.890625 C 21.898438 20.152344 21.699219 20.398438 21.472656 20.621094 C 21.246094 20.847656 21.003906 21.046875 20.738281 21.222656 C 20.472656 21.398438 20.191406 21.550781 19.898438 21.671875 C 19.605469 21.792969 19.300781 21.886719 18.988281 21.949219 C 18.675781 22.011719 18.359375 22.042969 18.039062 22.042969 Z M 18.039062 2.394531 C 17.726562 2.394531 17.425781 2.457031 17.132812 2.578125 C 16.84375 2.699219 16.589844 2.871094 16.367188 3.09375 C 16.144531 3.3125 15.972656 3.570312 15.851562 3.859375 C 15.734375 4.148438 15.671875 4.449219 15.671875 4.761719 L 15.671875 17.203125 C 15.648438 17.53125 15.691406 17.851562 15.800781 18.164062 C 15.914062 18.472656 16.078125 18.75 16.304688 18.988281 C 16.53125 19.230469 16.792969 19.417969 17.097656 19.546875 C 17.398438 19.679688 17.714844 19.746094 18.046875 19.746094 C 18.378906 19.746094 18.695312 19.679688 18.996094 19.546875 C 19.300781 19.417969 19.5625 19.230469 19.789062 18.988281 C 20.015625 18.75 20.183594 18.472656 20.292969 18.164062 C 20.402344 17.851562 20.445312 17.53125 20.421875 17.203125 L 20.421875 4.761719 C 20.425781 4.109375 20.191406 3.554688 19.726562 3.097656 C 19.261719 2.628906 18.703125 2.394531 18.039062 2.394531 Z M 18.039062 2.394531 " fill-opacity="1" fill-rule="nonzero"/><path fill="#000000" d="M 41.554688 22.042969 C 41.234375 22.042969 40.917969 22.011719 40.605469 21.949219 C 40.296875 21.886719 39.992188 21.792969 39.699219 21.671875 C 39.402344 21.550781 39.125 21.398438 38.859375 21.222656 C 38.59375 21.046875 38.351562 20.847656 38.125 20.621094 C 37.902344 20.398438 37.699219 20.152344 37.523438 19.890625 C 37.347656 19.625 37.199219 19.347656 37.074219 19.054688 C 36.953125 18.761719 36.863281 18.457031 36.800781 18.148438 C 36.738281 17.835938 36.707031 17.523438 36.707031 17.203125 L 36.707031 4.761719 C 36.722656 4.457031 36.765625 4.152344 36.839844 3.855469 C 36.914062 3.554688 37.015625 3.265625 37.144531 2.988281 C 37.273438 2.707031 37.425781 2.445312 37.605469 2.195312 C 37.785156 1.945312 37.988281 1.714844 38.210938 1.5 C 38.433594 1.289062 38.675781 1.101562 38.9375 0.933594 C 39.195312 0.769531 39.46875 0.628906 39.757812 0.515625 C 40.042969 0.402344 40.339844 0.316406 40.640625 0.257812 C 40.945312 0.199219 41.25 0.167969 41.558594 0.167969 C 41.867188 0.167969 42.175781 0.199219 42.476562 0.257812 C 42.78125 0.316406 43.074219 0.402344 43.363281 0.515625 C 43.648438 0.628906 43.921875 0.769531 44.183594 0.933594 C 44.441406 1.101562 44.683594 1.289062 44.90625 1.5 C 45.132812 1.714844 45.332031 1.945312 45.511719 2.195312 C 45.691406 2.445312 45.847656 2.707031 45.976562 2.988281 C 46.101562 3.265625 46.203125 3.554688 46.277344 3.855469 C 46.351562 4.152344 46.394531 4.457031 46.410156 4.761719 L 46.410156 17.203125 C 46.410156 17.523438 46.378906 17.835938 46.316406 18.148438 C 46.253906 18.457031 46.160156 18.761719 46.039062 19.054688 C 45.917969 19.347656 45.765625 19.625 45.589844 19.890625 C 45.410156 20.152344 45.210938 20.398438 44.984375 20.621094 C 44.761719 20.847656 44.515625 21.046875 44.25 21.222656 C 43.984375 21.398438 43.703125 21.550781 43.410156 21.671875 C 43.117188 21.792969 42.8125 21.886719 42.5 21.949219 C 42.1875 22.011719 41.871094 22.042969 41.554688 22.042969 Z M 41.554688 2.394531 C 41.238281 2.394531 40.9375 2.457031 40.644531 2.578125 C 40.355469 2.699219 40.101562 2.871094 39.878906 3.09375 C 39.65625 3.3125 39.484375 3.570312 39.367188 3.859375 C 39.246094 4.148438 39.1875 4.449219 39.1875 4.761719 L 39.1875 17.203125 C 39.160156 17.53125 39.203125 17.851562 39.316406 18.164062 C 39.425781 18.472656 39.59375 18.75 39.816406 18.988281 C 40.042969 19.230469 40.304688 19.417969 40.609375 19.546875 C 40.914062 19.679688 41.230469 19.746094 41.558594 19.746094 C 41.890625 19.746094 42.207031 19.679688 42.507812 19.546875 C 42.8125 19.417969 43.078125 19.230469 43.300781 18.988281 C 43.527344 18.75 43.695312 18.472656 43.804688 18.164062 C 43.914062 17.851562 43.957031 17.53125 43.933594 17.203125 L 43.933594 4.761719 C 43.9375 4.109375 43.707031 3.554688 43.238281 3.097656 C 42.777344 2.628906 42.214844 2.394531 41.554688 2.394531 Z M 41.554688 2.394531 " fill-opacity="1" fill-rule="nonzero"/><path fill="#000000" d="M 65.066406 22.042969 C 64.746094 22.042969 64.433594 22.011719 64.121094 21.949219 C 63.808594 21.886719 63.503906 21.792969 63.210938 21.671875 C 62.917969 21.550781 62.636719 21.398438 62.371094 21.222656 C 62.109375 21.046875 61.863281 20.847656 61.636719 20.621094 C 61.414062 20.398438 61.210938 20.152344 61.035156 19.890625 C 60.859375 19.625 60.710938 19.347656 60.589844 19.054688 C 60.464844 18.761719 60.375 18.457031 60.3125 18.148438 C 60.25 17.835938 60.21875 17.523438 60.21875 17.203125 L 60.21875 4.761719 C 60.234375 4.457031 60.28125 4.152344 60.351562 3.855469 C 60.425781 3.554688 60.527344 3.265625 60.65625 2.988281 C 60.785156 2.707031 60.941406 2.445312 61.121094 2.195312 C 61.296875 1.945312 61.5 1.714844 61.722656 1.5 C 61.949219 1.289062 62.191406 1.101562 62.449219 0.933594 C 62.710938 0.769531 62.984375 0.628906 63.269531 0.515625 C 63.554688 0.402344 63.851562 0.316406 64.152344 0.257812 C 64.457031 0.199219 64.761719 0.167969 65.070312 0.167969 C 65.378906 0.167969 65.6875 0.199219 65.988281 0.257812 C 66.292969 0.316406 66.585938 0.402344 66.875 0.515625 C 67.160156 0.628906 67.433594 0.769531 67.695312 0.933594 C 67.953125 1.101562 68.195312 1.289062 68.417969 1.5 C 68.644531 1.714844 68.84375 1.945312 69.023438 2.195312 C 69.203125 2.445312 69.359375 2.707031 69.488281 2.988281 C 69.617188 3.265625 69.71875 3.554688 69.789062 3.855469 C 69.863281 4.152344 69.910156 4.457031 69.925781 4.761719 L 69.925781 17.203125 C 69.921875 17.523438 69.890625 17.835938 69.828125 18.148438 C 69.765625 18.457031 69.671875 18.761719 69.550781 19.054688 C 69.429688 19.347656 69.277344 19.625 69.101562 19.890625 C 68.925781 20.152344 68.722656 20.398438 68.496094 20.621094 C 68.273438 20.847656 68.027344 21.046875 67.761719 21.222656 C 67.496094 21.398438 67.21875 21.550781 66.921875 21.671875 C 66.628906 21.792969 66.324219 21.886719 66.011719 21.949219 C 65.699219 22.011719 65.382812 22.042969 65.066406 22.042969 Z M 65.066406 2.394531 C 64.75 2.394531 64.449219 2.457031 64.160156 2.578125 C 63.867188 2.699219 63.613281 2.871094 63.390625 3.09375 C 63.167969 3.3125 63 3.570312 62.878906 3.859375 C 62.757812 4.148438 62.699219 4.449219 62.699219 4.761719 L 62.699219 17.203125 C 62.675781 17.53125 62.71875 17.851562 62.828125 18.164062 C 62.9375 18.472656 63.105469 18.75 63.328125 18.988281 C 63.554688 19.230469 63.820312 19.417969 64.121094 19.546875 C 64.425781 19.679688 64.742188 19.746094 65.070312 19.746094 C 65.402344 19.746094 65.71875 19.679688 66.023438 19.546875 C 66.324219 19.417969 66.589844 19.230469 66.8125 18.988281 C 67.039062 18.75 67.207031 18.472656 67.316406 18.164062 C 67.425781 17.851562 67.46875 17.53125 67.445312 17.203125 L 67.445312 4.761719 C 67.449219 4.109375 67.21875 3.554688 66.75 3.097656 C 66.289062 2.628906 65.726562 2.394531 65.066406 2.394531 Z M 65.066406 2.394531 " fill-opacity="1" fill-rule="nonzero"/><path fill="#000000" d="M 88.578125 22.042969 C 88.257812 22.042969 87.945312 22.011719 87.632812 21.949219 C 87.320312 21.886719 87.015625 21.792969 86.722656 21.671875 C 86.429688 21.550781 86.148438 21.398438 85.882812 21.222656 C 85.621094 21.046875 85.375 20.847656 85.152344 20.621094 C 84.925781 20.398438 84.726562 20.152344 84.546875 19.890625 C 84.371094 19.625 84.222656 19.347656 84.101562 19.054688 C 83.980469 18.761719 83.886719 18.457031 83.824219 18.148438 C 83.761719 17.835938 83.730469 17.523438 83.730469 17.203125 L 83.730469 4.761719 C 83.746094 4.457031 83.792969 4.152344 83.867188 3.855469 C 83.9375 3.554688 84.039062 3.265625 84.167969 2.988281 C 84.296875 2.707031 84.453125 2.445312 84.632812 2.195312 C 84.8125 1.945312 85.011719 1.710938 85.238281 1.5 C 85.460938 1.289062 85.703125 1.101562 85.960938 0.933594 C 86.222656 0.769531 86.496094 0.628906 86.78125 0.515625 C 87.070312 0.402344 87.363281 0.3125 87.667969 0.257812 C 87.96875 0.199219 88.277344 0.167969 88.585938 0.167969 C 88.894531 0.167969 89.199219 0.199219 89.503906 0.257812 C 89.804688 0.3125 90.101562 0.402344 90.386719 0.515625 C 90.671875 0.628906 90.945312 0.769531 91.207031 0.933594 C 91.464844 1.101562 91.707031 1.289062 91.933594 1.5 C 92.15625 1.710938 92.355469 1.945312 92.535156 2.195312 C 92.714844 2.445312 92.871094 2.707031 93 2.988281 C 93.128906 3.265625 93.230469 3.554688 93.304688 3.855469 C 93.375 4.152344 93.421875 4.457031 93.4375 4.761719 L 93.4375 17.203125 C 93.4375 17.523438 93.402344 17.835938 93.339844 18.148438 C 93.277344 18.457031 93.1875 18.761719 93.0625 19.054688 C 92.941406 19.347656 92.792969 19.625 92.613281 19.890625 C 92.4375 20.152344 92.234375 20.398438 92.011719 20.621094 C 91.785156 20.847656 91.539062 21.046875 91.273438 21.222656 C 91.007812 21.398438 90.730469 21.550781 90.433594 21.671875 C 90.140625 21.792969 89.835938 21.886719 89.523438 21.949219 C 89.210938 22.011719 88.898438 22.042969 88.578125 22.042969 Z M 88.578125 2.394531 C 88.261719 2.394531 87.960938 2.457031 87.671875 2.578125 C 87.382812 2.699219 87.125 2.871094 86.902344 3.09375 C 86.679688 3.3125 86.511719 3.570312 86.390625 3.859375 C 86.269531 4.148438 86.210938 4.449219 86.210938 4.761719 L 86.210938 17.203125 C 86.1875 17.53125 86.230469 17.851562 86.339844 18.164062 C 86.449219 18.472656 86.617188 18.75 86.84375 18.988281 C 87.066406 19.230469 87.332031 19.417969 87.632812 19.546875 C 87.9375 19.679688 88.253906 19.746094 88.585938 19.746094 C 88.914062 19.746094 89.230469 19.679688 89.535156 19.546875 C 89.835938 19.417969 90.101562 19.230469 90.328125 18.988281 C 90.550781 18.75 90.71875 18.472656 90.828125 18.164062 C 90.9375 17.851562 90.980469 17.53125 90.957031 17.203125 L 90.957031 4.761719 C 90.960938 4.109375 90.730469 3.554688 90.265625 3.097656 C 89.800781 2.628906 89.238281 2.394531 88.578125 2.394531 Z M 88.578125 2.394531 " fill-opacity="1" fill-rule="nonzero"/><g clip-path="url(#4b1305f8b7)"><path fill="#000000" d="M 97.402344 114.09375 C 96.324219 114.09375 95.246094 114.019531 94.175781 113.875 C 93.109375 113.730469 92.050781 113.515625 91.011719 113.230469 C 89.96875 112.945312 88.953125 112.59375 87.957031 112.171875 C 86.964844 111.75 86.003906 111.261719 85.078125 110.710938 C 84.148438 110.160156 83.261719 109.550781 82.417969 108.882812 C 81.570312 108.214844 80.773438 107.492188 80.027344 106.714844 C 79.277344 105.941406 78.585938 105.117188 77.949219 104.25 C 77.3125 103.382812 76.734375 102.476562 76.222656 101.527344 C 74.878906 99.078125 74.003906 96.476562 73.59375 93.714844 C 73.582031 93.601562 73.582031 93.484375 73.59375 93.371094 L 73.59375 93.234375 C 73.445312 92.199219 73.371094 91.160156 73.371094 90.113281 C 73.359375 87.835938 73.667969 85.601562 74.300781 83.414062 C 74.933594 81.226562 75.863281 79.171875 77.089844 77.25 C 78.730469 74.617188 80.8125 72.398438 83.335938 70.585938 L 83.804688 70.242188 C 85.335938 69.207031 86.957031 68.355469 88.675781 67.6875 C 89.261719 67.453125 89.917969 67.242188 90.597656 67.03125 L 91.167969 66.859375 C 92.058594 66.621094 92.960938 66.4375 93.875 66.304688 C 94.785156 66.171875 95.703125 66.089844 96.625 66.0625 C 97.546875 66.03125 98.464844 66.054688 99.382812 66.132812 C 100.304688 66.207031 101.214844 66.335938 102.117188 66.515625 C 103.023438 66.699219 103.914062 66.929688 104.789062 67.210938 C 105.667969 67.492188 106.527344 67.824219 107.363281 68.207031 C 108.203125 68.585938 109.019531 69.011719 109.808594 69.484375 C 110.597656 69.960938 111.359375 70.476562 112.089844 71.035156 C 112.820312 71.597656 113.515625 72.195312 114.175781 72.835938 C 114.835938 73.476562 115.460938 74.152344 116.042969 74.863281 C 116.628906 75.574219 117.167969 76.316406 117.664062 77.085938 C 118.164062 77.859375 118.617188 78.660156 119.023438 79.484375 C 119.429688 80.308594 119.785156 81.152344 120.09375 82.015625 C 120.402344 82.882812 120.660156 83.761719 120.867188 84.65625 C 121.074219 85.550781 121.230469 86.453125 121.335938 87.367188 C 121.4375 88.277344 121.488281 89.195312 121.484375 90.113281 C 121.484375 90.898438 121.445312 91.679688 121.367188 92.460938 C 121.289062 93.242188 121.171875 94.019531 121.015625 94.789062 C 120.863281 95.558594 120.667969 96.320312 120.441406 97.070312 C 120.210938 97.820312 119.945312 98.558594 119.640625 99.285156 C 119.339844 100.007812 119.003906 100.71875 118.632812 101.410156 C 118.257812 102.101562 117.855469 102.773438 117.414062 103.425781 C 116.976562 104.078125 116.507812 104.710938 116.007812 105.316406 C 115.507812 105.921875 114.980469 106.503906 114.421875 107.058594 C 113.863281 107.613281 113.28125 108.140625 112.671875 108.640625 C 112.0625 109.136719 111.429688 109.605469 110.773438 110.042969 C 110.117188 110.476562 109.441406 110.882812 108.75 111.25 C 108.054688 111.621094 107.339844 111.957031 106.613281 112.257812 C 105.886719 112.558594 105.144531 112.824219 104.390625 113.054688 C 103.636719 113.28125 102.871094 113.472656 102.097656 113.628906 C 101.324219 113.78125 100.546875 113.898438 99.761719 113.976562 C 98.976562 114.054688 98.191406 114.09375 97.402344 114.09375 Z M 97.402344 68.574219 C 95.492188 68.574219 93.613281 68.816406 91.761719 69.304688 L 91.328125 69.425781 C 90.722656 69.597656 90.128906 69.800781 89.542969 70.03125 C 88.007812 70.628906 86.558594 71.390625 85.195312 72.3125 L 84.773438 72.609375 C 83.378906 73.609375 82.121094 74.757812 81 76.050781 C 79.878906 77.347656 78.925781 78.757812 78.136719 80.277344 C 77.351562 81.800781 76.757812 83.390625 76.351562 85.054688 C 75.945312 86.714844 75.742188 88.402344 75.738281 90.113281 C 75.738281 91.039062 75.800781 91.960938 75.9375 92.878906 L 75.9375 93.0625 C 75.9375 93.125 75.9375 93.171875 75.9375 93.234375 C 76.308594 95.746094 77.101562 98.113281 78.316406 100.34375 C 79.042969 101.699219 79.910156 102.957031 80.917969 104.121094 C 81.453125 104.742188 82.023438 105.332031 82.625 105.890625 C 83.226562 106.445312 83.859375 106.96875 84.523438 107.453125 C 85.1875 107.9375 85.875 108.382812 86.585938 108.792969 C 87.300781 109.199219 88.035156 109.5625 88.789062 109.886719 C 89.546875 110.210938 90.316406 110.492188 91.105469 110.726562 C 91.894531 110.960938 92.691406 111.152344 93.5 111.296875 C 94.308594 111.441406 95.125 111.542969 95.945312 111.59375 C 96.765625 111.644531 97.585938 111.652344 98.410156 111.609375 C 99.230469 111.570312 100.046875 111.484375 100.859375 111.347656 C 101.667969 111.214844 102.46875 111.035156 103.261719 110.8125 C 104.050781 110.585938 104.828125 110.316406 105.585938 110.003906 C 106.347656 109.691406 107.085938 109.335938 107.804688 108.941406 C 108.527344 108.542969 109.21875 108.109375 109.890625 107.632812 C 110.558594 107.15625 111.199219 106.644531 111.808594 106.09375 C 112.421875 105.546875 112.996094 104.964844 113.542969 104.351562 C 114.085938 103.738281 114.59375 103.09375 115.0625 102.421875 C 115.53125 101.75 115.964844 101.054688 116.355469 100.332031 C 116.746094 99.613281 117.09375 98.871094 117.398438 98.113281 C 117.703125 97.351562 117.964844 96.578125 118.183594 95.785156 C 118.398438 94.996094 118.570312 94.195312 118.695312 93.386719 C 118.820312 92.578125 118.898438 91.765625 118.929688 90.945312 C 118.960938 90.128906 118.945312 89.308594 118.886719 88.492188 C 118.824219 87.675781 118.714844 86.867188 118.558594 86.0625 C 118.40625 85.257812 118.207031 84.464844 117.960938 83.683594 C 117.714844 82.902344 117.425781 82.136719 117.089844 81.386719 C 116.757812 80.640625 116.382812 79.910156 115.964844 79.207031 C 115.550781 78.5 115.09375 77.820312 114.597656 77.164062 C 114.105469 76.511719 113.574219 75.886719 113.007812 75.292969 C 112.441406 74.699219 111.84375 74.140625 111.214844 73.613281 C 110.582031 73.085938 109.925781 72.597656 109.238281 72.148438 C 108.550781 71.695312 107.84375 71.285156 107.109375 70.914062 C 106.375 70.542969 105.625 70.21875 104.851562 69.933594 C 102.464844 69.035156 99.992188 68.582031 97.441406 68.574219 Z M 97.402344 68.574219 " fill-opacity="1" fill-rule="nonzero"/></g><path fill="#000000" d="M 97.402344 74.191406 C 97.238281 74.191406 97.082031 74.160156 96.929688 74.097656 C 96.777344 74.035156 96.644531 73.945312 96.527344 73.828125 C 96.410156 73.714844 96.320312 73.578125 96.257812 73.429688 C 96.195312 73.277344 96.164062 73.121094 96.164062 72.957031 L 96.164062 72.300781 C 96.164062 72.136719 96.195312 71.980469 96.257812 71.828125 C 96.320312 71.679688 96.410156 71.546875 96.527344 71.429688 C 96.644531 71.3125 96.777344 71.222656 96.929688 71.160156 C 97.082031 71.097656 97.238281 71.066406 97.402344 71.066406 C 97.566406 71.066406 97.726562 71.097656 97.878906 71.160156 C 98.027344 71.222656 98.164062 71.3125 98.28125 71.429688 C 98.394531 71.546875 98.484375 71.679688 98.546875 71.828125 C 98.609375 71.980469 98.640625 72.136719 98.640625 72.300781 L 98.640625 72.957031 C 98.640625 73.121094 98.609375 73.277344 98.546875 73.429688 C 98.484375 73.578125 98.394531 73.714844 98.28125 73.828125 C 98.164062 73.945312 98.027344 74.035156 97.878906 74.097656 C 97.726562 74.160156 97.566406 74.191406 97.402344 74.191406 Z M 97.402344 74.191406 " fill-opacity="1" fill-rule="nonzero"/><path fill="#000000" d="M 85.230469 79.226562 C 84.867188 79.238281 84.558594 79.117188 84.300781 78.855469 L 83.84375 78.386719 C 83.726562 78.269531 83.640625 78.136719 83.578125 77.988281 C 83.515625 77.835938 83.484375 77.679688 83.484375 77.515625 C 83.484375 77.355469 83.515625 77.195312 83.578125 77.046875 C 83.640625 76.894531 83.726562 76.761719 83.84375 76.648438 C 83.960938 76.53125 84.09375 76.441406 84.246094 76.382812 C 84.394531 76.320312 84.554688 76.289062 84.71875 76.289062 C 84.882812 76.289062 85.039062 76.320312 85.191406 76.382812 C 85.339844 76.441406 85.476562 76.53125 85.589844 76.648438 L 86.050781 77.101562 C 86.226562 77.277344 86.339844 77.488281 86.390625 77.734375 C 86.441406 77.976562 86.417969 78.214844 86.324219 78.445312 C 86.230469 78.679688 86.078125 78.863281 85.871094 79.003906 C 85.660156 79.140625 85.433594 79.210938 85.183594 79.214844 Z M 85.230469 79.226562 " fill-opacity="1" fill-rule="nonzero"/><path fill="#000000" d="M 80.1875 91.335938 L 79.53125 91.335938 C 79.367188 91.335938 79.207031 91.304688 79.054688 91.242188 C 78.902344 91.175781 78.769531 91.089844 78.652344 90.972656 C 78.539062 90.855469 78.449219 90.722656 78.386719 90.574219 C 78.320312 90.421875 78.289062 90.265625 78.289062 90.101562 C 78.289062 89.9375 78.320312 89.777344 78.386719 89.628906 C 78.449219 89.476562 78.539062 89.34375 78.652344 89.226562 C 78.769531 89.113281 78.902344 89.023438 79.054688 88.960938 C 79.207031 88.898438 79.367188 88.867188 79.53125 88.867188 L 80.1875 88.867188 C 80.351562 88.867188 80.507812 88.898438 80.660156 88.960938 C 80.8125 89.023438 80.945312 89.113281 81.0625 89.226562 C 81.179688 89.34375 81.269531 89.476562 81.332031 89.628906 C 81.394531 89.777344 81.425781 89.9375 81.425781 90.101562 C 81.425781 90.265625 81.394531 90.421875 81.332031 90.574219 C 81.269531 90.722656 81.179688 90.855469 81.0625 90.972656 C 80.945312 91.089844 80.8125 91.175781 80.660156 91.242188 C 80.507812 91.304688 80.351562 91.335938 80.1875 91.335938 Z M 80.1875 91.335938 " fill-opacity="1" fill-rule="nonzero"/><path fill="#000000" d="M 84.761719 103.910156 C 84.421875 103.910156 84.132812 103.789062 83.894531 103.554688 C 83.777344 103.4375 83.683594 103.304688 83.621094 103.152344 C 83.558594 103 83.527344 102.839844 83.527344 102.675781 C 83.527344 102.511719 83.558594 102.355469 83.621094 102.203125 C 83.683594 102.050781 83.777344 101.917969 83.894531 101.800781 L 84.351562 101.34375 C 84.46875 101.242188 84.601562 101.167969 84.75 101.117188 C 84.898438 101.066406 85.050781 101.042969 85.207031 101.046875 C 85.363281 101.054688 85.511719 101.089844 85.652344 101.152344 C 85.796875 101.210938 85.925781 101.300781 86.035156 101.410156 C 86.144531 101.519531 86.230469 101.644531 86.292969 101.789062 C 86.355469 101.929688 86.390625 102.078125 86.394531 102.234375 C 86.402344 102.390625 86.378906 102.539062 86.328125 102.6875 C 86.277344 102.832031 86.199219 102.964844 86.097656 103.085938 L 85.640625 103.554688 C 85.398438 103.792969 85.105469 103.914062 84.761719 103.910156 Z M 84.761719 103.910156 " fill-opacity="1" fill-rule="nonzero"/><path fill="#000000" d="M 97.402344 109.132812 C 97.238281 109.132812 97.082031 109.101562 96.929688 109.039062 C 96.777344 108.976562 96.644531 108.886719 96.527344 108.769531 C 96.410156 108.65625 96.320312 108.523438 96.257812 108.371094 C 96.195312 108.21875 96.164062 108.0625 96.164062 107.898438 L 96.164062 107.242188 C 96.164062 107.082031 96.195312 106.921875 96.257812 106.773438 C 96.320312 106.621094 96.410156 106.488281 96.527344 106.371094 C 96.644531 106.253906 96.777344 106.167969 96.929688 106.105469 C 97.082031 106.039062 97.238281 106.007812 97.402344 106.007812 C 97.566406 106.007812 97.726562 106.039062 97.878906 106.105469 C 98.027344 106.167969 98.164062 106.253906 98.28125 106.371094 C 98.394531 106.488281 98.484375 106.621094 98.546875 106.773438 C 98.609375 106.921875 98.640625 107.082031 98.640625 107.242188 L 98.640625 107.898438 C 98.640625 108.0625 98.609375 108.21875 98.546875 108.371094 C 98.484375 108.523438 98.394531 108.65625 98.28125 108.769531 C 98.164062 108.886719 98.027344 108.976562 97.878906 109.039062 C 97.726562 109.101562 97.566406 109.132812 97.402344 109.132812 Z M 97.402344 109.132812 " fill-opacity="1" fill-rule="nonzero"/><path fill="#000000" d="M 110.03125 103.910156 C 109.695312 103.910156 109.40625 103.789062 109.164062 103.554688 L 108.695312 103.085938 C 108.578125 102.96875 108.488281 102.835938 108.425781 102.683594 C 108.363281 102.535156 108.335938 102.378906 108.335938 102.214844 C 108.335938 102.050781 108.363281 101.894531 108.425781 101.742188 C 108.488281 101.59375 108.578125 101.460938 108.695312 101.34375 C 108.8125 101.226562 108.945312 101.136719 109.097656 101.074219 C 109.25 101.011719 109.410156 100.980469 109.574219 100.980469 C 109.738281 100.980469 109.898438 101.011719 110.050781 101.074219 C 110.203125 101.136719 110.339844 101.226562 110.453125 101.34375 L 110.914062 101.800781 C 111.09375 101.976562 111.207031 102.1875 111.253906 102.433594 C 111.304688 102.679688 111.28125 102.917969 111.183594 103.152344 C 111.089844 103.382812 110.933594 103.566406 110.726562 103.707031 C 110.515625 103.84375 110.285156 103.914062 110.03125 103.910156 Z M 110.03125 103.910156 " fill-opacity="1" fill-rule="nonzero"/><path fill="#000000" d="M 115.289062 91.335938 L 114.632812 91.335938 C 114.46875 91.335938 114.308594 91.304688 114.15625 91.242188 C 114.003906 91.175781 113.871094 91.089844 113.753906 90.972656 C 113.640625 90.855469 113.550781 90.722656 113.484375 90.574219 C 113.421875 90.421875 113.390625 90.265625 113.390625 90.101562 C 113.390625 89.9375 113.421875 89.777344 113.484375 89.628906 C 113.550781 89.476562 113.640625 89.34375 113.753906 89.226562 C 113.871094 89.113281 114.003906 89.023438 114.15625 88.960938 C 114.308594 88.898438 114.46875 88.867188 114.632812 88.867188 L 115.289062 88.867188 C 115.453125 88.867188 115.609375 88.898438 115.761719 88.960938 C 115.914062 89.023438 116.046875 89.113281 116.164062 89.226562 C 116.28125 89.34375 116.371094 89.476562 116.433594 89.628906 C 116.496094 89.777344 116.527344 89.9375 116.527344 90.101562 C 116.527344 90.265625 116.496094 90.421875 116.433594 90.574219 C 116.371094 90.722656 116.28125 90.855469 116.164062 90.972656 C 116.046875 91.089844 115.914062 91.175781 115.761719 91.242188 C 115.609375 91.304688 115.453125 91.335938 115.289062 91.335938 Z M 115.289062 91.335938 " fill-opacity="1" fill-rule="nonzero"/><path fill="#000000" d="M 109.574219 79.226562 C 109.230469 79.226562 108.9375 79.109375 108.695312 78.867188 C 108.578125 78.753906 108.488281 78.617188 108.421875 78.464844 C 108.359375 78.316406 108.328125 78.15625 108.328125 77.992188 C 108.328125 77.828125 108.359375 77.667969 108.421875 77.515625 C 108.488281 77.367188 108.578125 77.230469 108.695312 77.117188 L 109.164062 76.660156 C 109.285156 76.558594 109.417969 76.480469 109.5625 76.429688 C 109.710938 76.378906 109.863281 76.355469 110.019531 76.363281 C 110.175781 76.367188 110.324219 76.402344 110.46875 76.464844 C 110.609375 76.527344 110.738281 76.613281 110.847656 76.722656 C 110.957031 76.832031 111.042969 76.960938 111.105469 77.101562 C 111.167969 77.246094 111.203125 77.394531 111.210938 77.546875 C 111.214844 77.703125 111.195312 77.855469 111.140625 78 C 111.089844 78.148438 111.015625 78.28125 110.914062 78.398438 L 110.453125 78.867188 C 110.210938 79.109375 109.917969 79.226562 109.574219 79.226562 Z M 109.574219 79.226562 " fill-opacity="1" fill-rule="nonzero"/><path fill="#000000" d="M 104.132812 98.023438 C 103.789062 98.027344 103.496094 97.90625 103.253906 97.667969 L 98.371094 92.730469 C 98.253906 92.613281 98.160156 92.480469 98.097656 92.328125 C 98.035156 92.175781 98.003906 92.015625 98.003906 91.851562 C 98.003906 91.6875 98.035156 91.53125 98.097656 91.378906 C 98.160156 91.226562 98.253906 91.09375 98.371094 90.976562 C 98.484375 90.863281 98.621094 90.773438 98.769531 90.710938 C 98.921875 90.648438 99.078125 90.617188 99.242188 90.617188 C 99.40625 90.617188 99.566406 90.648438 99.714844 90.710938 C 99.867188 90.773438 100 90.863281 100.117188 90.976562 L 105.074219 95.914062 C 105.191406 96.027344 105.28125 96.164062 105.347656 96.316406 C 105.410156 96.46875 105.441406 96.625 105.441406 96.789062 C 105.441406 96.953125 105.410156 97.113281 105.347656 97.265625 C 105.28125 97.417969 105.191406 97.550781 105.074219 97.667969 C 104.816406 97.925781 104.5 98.042969 104.132812 98.023438 Z M 104.132812 98.023438 " fill-opacity="1" fill-rule="nonzero"/><path fill="#000000" d="M 97.402344 88.765625 C 97.238281 88.765625 97.082031 88.734375 96.929688 88.671875 C 96.777344 88.609375 96.644531 88.519531 96.527344 88.40625 C 96.410156 88.289062 96.320312 88.15625 96.257812 88.003906 C 96.195312 87.855469 96.164062 87.695312 96.164062 87.53125 L 96.164062 78.460938 C 96.164062 78.296875 96.195312 78.140625 96.257812 77.988281 C 96.320312 77.835938 96.410156 77.703125 96.527344 77.589844 C 96.644531 77.472656 96.777344 77.382812 96.929688 77.320312 C 97.082031 77.257812 97.238281 77.226562 97.402344 77.226562 C 97.566406 77.226562 97.726562 77.257812 97.878906 77.320312 C 98.027344 77.382812 98.164062 77.472656 98.28125 77.589844 C 98.394531 77.703125 98.484375 77.835938 98.546875 77.988281 C 98.609375 78.140625 98.640625 78.296875 98.640625 78.460938 L 98.640625 87.53125 C 98.640625 87.695312 98.609375 87.855469 98.546875 88.003906 C 98.484375 88.15625 98.394531 88.289062 98.28125 88.40625 C 98.164062 88.519531 98.027344 88.609375 97.878906 88.671875 C 97.726562 88.734375 97.566406 88.765625 97.402344 88.765625 Z M 97.402344 88.765625 " fill-opacity="1" fill-rule="nonzero"/><path fill="#000000" d="M 97.402344 93.902344 C 96.894531 93.902344 96.410156 93.804688 95.941406 93.613281 C 95.472656 93.417969 95.058594 93.144531 94.703125 92.785156 C 94.34375 92.429688 94.070312 92.019531 93.875 91.550781 C 93.679688 91.085938 93.585938 90.601562 93.585938 90.097656 C 93.585938 89.589844 93.683594 89.105469 93.878906 88.640625 C 94.074219 88.175781 94.347656 87.765625 94.707031 87.40625 C 95.066406 87.050781 95.480469 86.777344 95.949219 86.585938 C 96.417969 86.394531 96.90625 86.296875 97.410156 86.296875 C 97.917969 86.300781 98.40625 86.398438 98.871094 86.589844 C 99.339844 86.785156 99.753906 87.0625 100.109375 87.417969 C 100.46875 87.777344 100.742188 88.1875 100.933594 88.65625 C 101.125 89.121094 101.222656 89.609375 101.21875 90.113281 C 101.214844 90.613281 101.113281 91.09375 100.917969 91.558594 C 100.71875 92.019531 100.445312 92.429688 100.085938 92.78125 C 99.730469 93.136719 99.320312 93.410156 98.855469 93.605469 C 98.390625 93.796875 97.90625 93.898438 97.402344 93.902344 Z M 97.402344 88.765625 C 97.226562 88.765625 97.054688 88.800781 96.890625 88.867188 C 96.726562 88.9375 96.582031 89.03125 96.457031 89.15625 C 96.332031 89.28125 96.234375 89.425781 96.167969 89.589844 C 96.097656 89.753906 96.0625 89.921875 96.0625 90.101562 C 96.0625 90.277344 96.097656 90.445312 96.167969 90.609375 C 96.234375 90.773438 96.332031 90.917969 96.457031 91.042969 C 96.582031 91.167969 96.726562 91.265625 96.890625 91.332031 C 97.054688 91.398438 97.226562 91.433594 97.402344 91.433594 C 97.773438 91.433594 98.085938 91.300781 98.34375 91.039062 C 98.617188 90.789062 98.746094 90.480469 98.742188 90.113281 C 98.742188 89.933594 98.710938 89.761719 98.644531 89.597656 C 98.574219 89.433594 98.480469 89.289062 98.355469 89.160156 C 98.226562 89.035156 98.082031 88.9375 97.917969 88.871094 C 97.753906 88.800781 97.582031 88.765625 97.402344 88.765625 Z M 97.402344 88.765625 " fill-opacity="1" fill-rule="nonzero"/></svg>