<svg xmlns="http://www.w3.org/2000/svg" xmlns:xlink="http://www.w3.org/1999/xlink" width="152" zoomAndPan="magnify" viewBox="0 0 114 116.249996" height="155" preserveAspectRatio="xMidYMid meet" version="1.0"><defs><clipPath id="e0c494bb8b"><path d="M 0.367188 2 L 30 2 L 30 32 L 0.367188 32 Z M 0.367188 2 " clip-rule="nonzero"/></clipPath><clipPath id="ff01c93385"><path d="M 0.367188 42 L 30 42 L 30 72 L 0.367188 72 Z M 0.367188 42 " clip-rule="nonzero"/></clipPath><clipPath id="0e8b266a1c"><path d="M 0.367188 83 L 30 83 L 30 113 L 0.367188 113 Z M 0.367188 83 " clip-rule="nonzero"/></clipPath><clipPath id="5e0461a73f"><path d="M 91 94 L 113.632812 94 L 113.632812 114.757812 L 91 114.757812 Z M 91 94 " clip-rule="nonzero"/></clipPath><clipPath id="2c577a69a4"><path d="M 96 102 L 100 102 L 100 114.757812 L 96 114.757812 Z M 96 102 " clip-rule="nonzero"/></clipPath><clipPath id="0ae9f20f5c"><path d="M 105 102 L 109 102 L 109 114.757812 L 105 114.757812 Z M 105 102 " clip-rule="nonzero"/></clipPath><clipPath id="8bed8d8646"><path d="M 91 12 L 113.632812 12 L 113.632812 34 L 91 34 Z M 91 12 " clip-rule="nonzero"/></clipPath><clipPath id="1b58baf552"><path d="M 91 53 L 113.632812 53 L 113.632812 74 L 91 74 Z M 91 53 " clip-rule="nonzero"/></clipPath></defs><g clip-path="url(#e0c494bb8b)"><path fill="#5c9cee" d="M 6.453125 2.160156 L 23.234375 2.160156 C 24.90625 2.160156 26.425781 2.84375 27.527344 3.941406 C 28.628906 5.039062 29.3125 6.554688 29.3125 8.222656 L 29.3125 24.949219 C 29.3125 26.617188 28.628906 28.132812 27.527344 29.230469 C 26.425781 30.328125 24.90625 31.011719 23.234375 31.011719 L 6.453125 31.011719 C 4.78125 31.011719 3.261719 30.328125 2.160156 29.230469 C 1.058594 28.132812 0.375 26.617188 0.375 24.949219 L 0.375 8.222656 C 0.375 6.554688 1.058594 5.039062 2.160156 3.941406 C 3.261719 2.84375 4.78125 2.160156 6.453125 2.160156 Z M 6.453125 2.160156 " fill-opacity="1" fill-rule="nonzero"/></g><g clip-path="url(#ff01c93385)"><path fill="#5c9cee" d="M 6.453125 42.953125 L 23.234375 42.953125 C 24.90625 42.953125 26.425781 43.636719 27.527344 44.734375 C 28.628906 45.832031 29.3125 47.347656 29.3125 49.015625 L 29.3125 65.742188 C 29.3125 67.410156 28.628906 68.925781 27.527344 70.023438 C 26.425781 71.121094 24.90625 71.804688 23.234375 71.804688 L 6.453125 71.804688 C 4.78125 71.804688 3.261719 71.121094 2.160156 70.023438 C 1.058594 68.925781 0.375 67.410156 0.375 65.742188 L 0.375 49.015625 C 0.375 47.347656 1.058594 45.832031 2.160156 44.734375 C 3.261719 43.636719 4.78125 42.953125 6.453125 42.953125 Z M 6.453125 42.953125 " fill-opacity="1" fill-rule="nonzero"/></g><g clip-path="url(#0e8b266a1c)"><path fill="#5c9cee" d="M 6.453125 83.746094 L 23.234375 83.746094 C 24.90625 83.746094 26.425781 84.429688 27.527344 85.527344 C 28.628906 86.625 29.3125 88.140625 29.3125 89.808594 L 29.3125 106.535156 C 29.3125 108.203125 28.628906 109.71875 27.527344 110.816406 C 26.425781 111.914062 24.90625 112.597656 23.234375 112.597656 L 6.453125 112.597656 C 4.78125 112.597656 3.261719 111.914062 2.160156 110.816406 C 1.058594 109.71875 0.375 108.203125 0.375 106.535156 L 0.375 89.808594 C 0.375 88.140625 1.058594 86.625 2.160156 85.527344 C 3.261719 84.429688 4.78125 83.746094 6.453125 83.746094 Z M 6.453125 83.746094 " fill-opacity="1" fill-rule="nonzero"/></g><path fill="#f2f6fb" d="M 9.984375 16.933594 C 9.640625 16.339844 8.875 16.136719 8.28125 16.480469 C 7.683594 16.824219 7.480469 17.585938 7.824219 18.179688 L 9.039062 20.277344 L 9.035156 20.277344 C 9.382812 20.875 10.148438 21.078125 10.746094 20.734375 C 10.769531 20.71875 10.796875 20.703125 10.820312 20.6875 L 21.40625 14.59375 C 22.003906 14.25 22.207031 13.488281 21.859375 12.894531 C 21.515625 12.296875 20.753906 12.097656 20.15625 12.441406 L 10.578125 17.953125 Z M 9.984375 16.933594 " fill-opacity="1" fill-rule="nonzero"/><path fill="#f2f6fb" d="M 9.984375 57.726562 C 9.640625 57.132812 8.875 56.929688 8.28125 57.273438 C 7.683594 57.617188 7.480469 58.378906 7.824219 58.972656 L 9.039062 61.070312 L 9.035156 61.070312 C 9.382812 61.667969 10.148438 61.871094 10.746094 61.527344 C 10.78125 61.507812 10.8125 61.488281 10.84375 61.464844 L 21.402344 55.386719 C 22 55.046875 22.203125 54.285156 21.859375 53.691406 C 21.519531 53.097656 20.757812 52.890625 20.160156 53.234375 L 10.578125 58.75 Z M 9.984375 57.726562 " fill-opacity="1" fill-rule="nonzero"/><path fill="#f2f6fb" d="M 9.984375 98.523438 C 9.644531 97.929688 8.882812 97.726562 8.285156 98.066406 C 7.6875 98.410156 7.484375 99.167969 7.824219 99.761719 L 9.039062 101.859375 L 9.035156 101.863281 C 9.382812 102.460938 10.148438 102.664062 10.746094 102.320312 C 10.78125 102.300781 10.8125 102.28125 10.84375 102.257812 L 21.402344 96.179688 C 22 95.839844 22.203125 95.078125 21.863281 94.484375 C 21.519531 93.890625 20.757812 93.683594 20.160156 94.027344 L 10.574219 99.542969 Z M 9.984375 98.523438 " fill-opacity="1" fill-rule="nonzero"/><path fill="#4d4d4d" d="M 89.871094 4.65625 C 90.5625 4.65625 91.121094 4.097656 91.121094 3.410156 C 91.121094 2.71875 90.5625 2.160156 89.871094 2.160156 L 35.546875 2.160156 C 34.855469 2.160156 34.296875 2.71875 34.296875 3.410156 C 34.296875 4.097656 34.855469 4.65625 35.546875 4.65625 Z M 89.871094 4.65625 " fill-opacity="1" fill-rule="nonzero"/><path fill="#4d4d4d" d="M 87.265625 17.832031 C 87.957031 17.832031 88.515625 17.273438 88.515625 16.585938 C 88.515625 15.898438 87.957031 15.339844 87.265625 15.339844 L 35.546875 15.339844 C 34.855469 15.339844 34.296875 15.898438 34.296875 16.585938 C 34.296875 17.273438 34.855469 17.832031 35.546875 17.832031 Z M 87.265625 17.832031 " fill-opacity="1" fill-rule="nonzero"/><path fill="#4d4d4d" d="M 85.894531 31.011719 C 86.582031 31.011719 87.144531 30.453125 87.144531 29.761719 C 87.144531 29.074219 86.582031 28.515625 85.894531 28.515625 L 35.546875 28.515625 C 34.855469 28.515625 34.296875 29.074219 34.296875 29.761719 C 34.296875 30.453125 34.855469 31.011719 35.546875 31.011719 Z M 85.894531 31.011719 " fill-opacity="1" fill-rule="nonzero"/><path fill="#4d4d4d" d="M 89.871094 45.449219 C 90.5625 45.449219 91.121094 44.890625 91.121094 44.203125 C 91.121094 43.511719 90.5625 42.953125 89.871094 42.953125 L 35.546875 42.953125 C 34.855469 42.953125 34.296875 43.511719 34.296875 44.203125 C 34.296875 44.890625 34.855469 45.449219 35.546875 45.449219 Z M 89.871094 45.449219 " fill-opacity="1" fill-rule="nonzero"/><path fill="#4d4d4d" d="M 87.265625 58.625 C 87.957031 58.625 88.515625 58.066406 88.515625 57.378906 C 88.515625 56.691406 87.957031 56.132812 87.265625 56.132812 L 35.546875 56.132812 C 34.855469 56.132812 34.296875 56.691406 34.296875 57.378906 C 34.296875 58.066406 34.855469 58.625 35.546875 58.625 Z M 87.265625 58.625 " fill-opacity="1" fill-rule="nonzero"/><path fill="#4d4d4d" d="M 85.894531 71.804688 C 86.582031 71.804688 87.144531 71.246094 87.144531 70.554688 C 87.144531 69.867188 86.582031 69.308594 85.894531 69.308594 L 35.546875 69.308594 C 34.855469 69.308594 34.296875 69.867188 34.296875 70.554688 C 34.296875 71.246094 34.855469 71.804688 35.546875 71.804688 Z M 85.894531 71.804688 " fill-opacity="1" fill-rule="nonzero"/><path fill="#4d4d4d" d="M 89.871094 86.242188 C 90.5625 86.242188 91.121094 85.683594 91.121094 84.996094 C 91.121094 84.304688 90.5625 83.746094 89.871094 83.746094 L 35.546875 83.746094 C 34.855469 83.746094 34.296875 84.304688 34.296875 84.996094 C 34.296875 85.683594 34.855469 86.242188 35.546875 86.242188 Z M 89.871094 86.242188 " fill-opacity="1" fill-rule="nonzero"/><path fill="#4d4d4d" d="M 87.265625 99.417969 C 87.957031 99.417969 88.515625 98.859375 88.515625 98.171875 C 88.515625 97.484375 87.957031 96.925781 87.265625 96.925781 L 35.546875 96.925781 C 34.855469 96.925781 34.296875 97.484375 34.296875 98.171875 C 34.296875 98.859375 34.855469 99.417969 35.546875 99.417969 Z M 87.265625 99.417969 " fill-opacity="1" fill-rule="nonzero"/><path fill="#4d4d4d" d="M 85.894531 112.597656 C 86.582031 112.597656 87.144531 112.039062 87.144531 111.347656 C 87.144531 110.660156 86.582031 110.101562 85.894531 110.101562 L 35.546875 110.101562 C 34.855469 110.101562 34.296875 110.660156 34.296875 111.347656 C 34.296875 112.039062 34.855469 112.597656 35.546875 112.597656 Z M 85.894531 112.597656 " fill-opacity="1" fill-rule="nonzero"/><g clip-path="url(#5e0461a73f)"><path fill="#98db7c" d="M 108.867188 94.40625 C 108.035156 93.828125 96.78125 94.050781 96.269531 94.40625 C 94.808594 95.421875 93.605469 96.78125 92.773438 98.363281 C 91.96875 99.890625 91.511719 101.621094 91.511719 103.445312 L 91.511719 113.503906 C 91.511719 114.191406 92.074219 114.75 92.765625 114.75 L 112.371094 114.75 C 113.0625 114.75 113.621094 114.191406 113.621094 113.503906 L 113.621094 103.445312 C 113.621094 101.621094 113.167969 99.890625 112.363281 98.363281 C 111.53125 96.78125 110.324219 95.421875 108.867188 94.40625 Z M 108.867188 94.40625 " fill-opacity="1" fill-rule="nonzero"/></g><g clip-path="url(#2c577a69a4)"><path fill="#82cc62" d="M 96.941406 114.75 L 99.445312 114.75 L 99.445312 103.65625 C 99.445312 102.96875 98.886719 102.410156 98.195312 102.410156 C 97.503906 102.410156 96.941406 102.96875 96.941406 103.65625 Z M 96.941406 114.75 " fill-opacity="1" fill-rule="nonzero"/></g><g clip-path="url(#0ae9f20f5c)"><path fill="#82cc62" d="M 105.6875 114.75 L 108.191406 114.75 L 108.191406 103.65625 C 108.191406 102.96875 107.632812 102.410156 106.941406 102.410156 C 106.25 102.410156 105.6875 102.96875 105.6875 103.65625 Z M 105.6875 114.75 " fill-opacity="1" fill-rule="nonzero"/></g><g clip-path="url(#8bed8d8646)"><path fill="#ffae06" d="M 108.867188 12.820312 C 108.035156 12.242188 96.78125 12.464844 96.269531 12.820312 C 94.808594 13.835938 93.605469 15.195312 92.773438 16.777344 C 91.96875 18.304688 91.511719 20.035156 91.511719 21.859375 L 91.511719 31.914062 C 91.511719 32.605469 92.074219 33.164062 92.765625 33.164062 L 112.371094 33.164062 C 113.0625 33.164062 113.621094 32.605469 113.621094 31.914062 L 113.621094 21.859375 C 113.621094 20.035156 113.167969 18.304688 112.363281 16.777344 C 111.53125 15.195312 110.324219 13.835938 108.867188 12.820312 Z M 108.867188 12.820312 " fill-opacity="1" fill-rule="nonzero"/></g><path fill="#ff9d05" d="M 96.941406 33.164062 L 99.445312 33.164062 L 99.445312 22.070312 C 99.445312 21.382812 98.886719 20.824219 98.195312 20.824219 C 97.503906 20.824219 96.941406 21.382812 96.941406 22.070312 Z M 96.941406 33.164062 " fill-opacity="1" fill-rule="nonzero"/><path fill="#ff9d05" d="M 105.6875 33.164062 L 108.191406 33.164062 L 108.191406 22.070312 C 108.191406 21.382812 107.632812 20.824219 106.941406 20.824219 C 106.25 20.824219 105.6875 21.382812 105.6875 22.070312 Z M 105.6875 33.164062 " fill-opacity="1" fill-rule="nonzero"/><g clip-path="url(#1b58baf552)"><path fill="#ef5350" d="M 108.867188 53.613281 C 108.035156 53.035156 96.78125 53.257812 96.269531 53.613281 C 94.808594 54.628906 93.605469 55.988281 92.773438 57.570312 C 91.96875 59.097656 91.511719 60.828125 91.511719 62.652344 L 91.511719 72.707031 C 91.511719 73.398438 92.074219 73.957031 92.765625 73.957031 L 112.371094 73.957031 C 113.0625 73.957031 113.621094 73.398438 113.621094 72.707031 L 113.621094 62.652344 C 113.621094 60.828125 113.167969 59.097656 112.363281 57.570312 C 111.53125 55.988281 110.324219 54.628906 108.867188 53.613281 Z M 108.867188 53.613281 " fill-opacity="1" fill-rule="nonzero"/></g><path fill="#e64543" d="M 96.941406 73.957031 L 99.445312 73.957031 L 99.445312 62.863281 C 99.445312 62.175781 98.886719 61.617188 98.195312 61.617188 C 97.503906 61.617188 96.941406 62.175781 96.941406 62.863281 Z M 96.941406 73.957031 " fill-opacity="1" fill-rule="nonzero"/><path fill="#e64543" d="M 105.6875 73.957031 L 108.191406 73.957031 L 108.191406 62.863281 C 108.191406 62.175781 107.632812 61.617188 106.941406 61.617188 C 106.25 61.617188 105.6875 62.175781 105.6875 62.863281 Z M 105.6875 73.957031 " fill-opacity="1" fill-rule="nonzero"/><path fill="#f9c5b8" d="M 102.566406 0.0078125 C 104.996094 0.0078125 107.195312 0.992188 108.789062 2.578125 C 110.378906 4.164062 111.363281 6.359375 111.363281 8.78125 C 111.363281 11.203125 110.378906 13.394531 108.789062 14.984375 C 107.195312 16.570312 104.996094 17.550781 102.566406 17.550781 C 100.136719 17.550781 97.9375 16.570312 96.347656 14.984375 C 94.753906 13.394531 93.769531 11.203125 93.769531 8.78125 C 93.769531 6.359375 94.753906 4.164062 96.347656 2.578125 C 97.9375 0.988281 100.136719 0.0078125 102.566406 0.0078125 Z M 102.566406 0.0078125 " fill-opacity="1" fill-rule="nonzero"/><path fill="#8f6e4e" d="M 111.363281 8.78125 C 111.363281 6.359375 110.378906 4.164062 108.789062 2.578125 C 107.195312 0.992188 104.996094 0.0078125 102.566406 0.0078125 C 100.136719 0.0078125 97.9375 0.988281 96.347656 2.578125 C 94.753906 4.164062 93.769531 6.359375 93.769531 8.78125 C 93.769531 9.644531 93.894531 10.480469 94.128906 11.269531 C 94.550781 9.847656 95.324219 8.578125 96.347656 7.558594 C 97.9375 5.96875 100.136719 4.988281 102.566406 4.988281 C 104.996094 4.988281 107.195312 5.96875 108.789062 7.558594 C 109.8125 8.578125 110.582031 9.847656 111.003906 11.269531 C 111.238281 10.480469 111.363281 9.644531 111.363281 8.78125 Z M 111.363281 8.78125 " fill-opacity="1" fill-rule="evenodd"/><path fill="#f9c5b8" d="M 102.566406 40.800781 C 104.996094 40.800781 107.195312 41.785156 108.789062 43.371094 C 110.378906 44.957031 111.363281 47.152344 111.363281 49.574219 C 111.363281 51.996094 110.378906 54.1875 108.789062 55.777344 C 107.195312 57.363281 104.996094 58.34375 102.566406 58.34375 C 100.136719 58.34375 97.9375 57.363281 96.347656 55.777344 C 94.753906 54.1875 93.769531 51.996094 93.769531 49.574219 C 93.769531 47.152344 94.753906 44.957031 96.347656 43.371094 C 97.9375 41.785156 100.136719 40.800781 102.566406 40.800781 Z M 102.566406 40.800781 " fill-opacity="1" fill-rule="nonzero"/><path fill="#8f6e4e" d="M 111.363281 49.574219 C 111.363281 47.152344 110.378906 44.957031 108.789062 43.371094 C 107.195312 41.785156 104.996094 40.800781 102.566406 40.800781 C 100.136719 40.800781 97.9375 41.785156 96.347656 43.371094 C 94.753906 44.957031 93.769531 47.152344 93.769531 49.574219 C 93.769531 50.4375 93.894531 51.273438 94.128906 52.0625 C 94.550781 50.640625 95.324219 49.371094 96.347656 48.351562 C 97.9375 46.761719 100.136719 45.78125 102.566406 45.78125 C 104.996094 45.78125 107.195312 46.761719 108.789062 48.351562 C 109.8125 49.371094 110.582031 50.640625 111.003906 52.0625 C 111.238281 51.273438 111.363281 50.4375 111.363281 49.574219 Z M 111.363281 49.574219 " fill-opacity="1" fill-rule="evenodd"/><path fill="#f9c5b8" d="M 102.566406 81.59375 C 104.996094 81.59375 107.195312 82.578125 108.789062 84.164062 C 110.378906 85.75 111.363281 87.945312 111.363281 90.367188 C 111.363281 92.789062 110.378906 94.980469 108.789062 96.570312 C 107.195312 98.15625 104.996094 99.136719 102.566406 99.136719 C 100.136719 99.136719 97.9375 98.15625 96.347656 96.570312 C 94.753906 94.980469 93.769531 92.789062 93.769531 90.367188 C 93.769531 87.945312 94.753906 85.75 96.347656 84.164062 C 97.9375 82.578125 100.136719 81.59375 102.566406 81.59375 Z M 102.566406 81.59375 " fill-opacity="1" fill-rule="nonzero"/><path fill="#8f6e4e" d="M 111.363281 90.367188 C 111.363281 87.945312 110.378906 85.75 108.789062 84.164062 C 107.195312 82.578125 104.996094 81.59375 102.566406 81.59375 C 100.136719 81.59375 97.9375 82.578125 96.347656 84.164062 C 94.753906 85.75 93.769531 87.945312 93.769531 90.367188 C 93.769531 91.230469 93.894531 92.066406 94.128906 92.855469 C 94.550781 91.433594 95.324219 90.164062 96.347656 89.144531 C 97.9375 87.554688 100.136719 86.574219 102.566406 86.574219 C 104.996094 86.574219 107.195312 87.558594 108.789062 89.144531 C 109.8125 90.164062 110.582031 91.433594 111.003906 92.855469 C 111.238281 92.066406 111.363281 91.230469 111.363281 90.367188 Z M 111.363281 90.367188 " fill-opacity="1" fill-rule="evenodd"/></svg>